<svg width="320" height="835" fill="none" xmlns="http://www.w3.org/2000/svg"><g opacity=".3" fill="#FFE492"><path d="M-23.286 645.259c-3.498-1.094-6.698-2.634-9.562-4.606-6.006-4.137-10.588-10.208-13.619-18.046-3.258-8.422-4.755-18.978-4.449-31.374.616-24.915 7.556-52.813 14.267-79.794 1.317-5.299 2.68-10.777 3.962-16.105 8.734-36.314 14.013-68.866 16.138-99.513 4.24-61.137-2.879-116.669-20.59-160.594-20.482-50.797-52.209-82.829-89.335-90.196-21.822-4.328-58.388 7.951-86.055 39.793-16.419 18.898-27.111 42.224-30.917 67.452l-.166.06c1.997-13.231 5.842-25.918 11.429-37.71a131.592 131.592 0 0 1 19.59-29.96c12.524-14.414 27.88-25.858 44.41-33.097 15.274-6.688 30.119-9.095 41.802-6.777 19.429 3.857 37.335 14.375 53.22 31.266 14.4 15.312 26.572 35.158 36.18 58.987 17.722 43.949 24.847 99.513 20.603 160.685-2.128 30.668-7.41 63.238-16.148 99.572a2088.321 2088.321 0 0 1-3.963 16.107c-6.707 26.961-13.642 54.84-14.256 79.719-.594 24.063 5.47 40.648 18.023 49.293 17.384 11.974 46.682 7.456 78.374-12.088 45.669-28.163 89.607-76.202 132.098-122.656 7.449-8.142 15.149-16.562 22.674-24.665 19.537-21.042 45.395-48.139 72.159-71.113 27.358-23.483 51.743-39.397 74.55-48.653 13.96-5.666 27.288-8.257 39.613-7.7 11.385.513 22.285 3.731 32.401 9.563 17.351 10.004 33.011 27.837 47.879 54.517 29.273 52.537 54.984 113.236 76.416 180.412 20.371 63.848 37.067 134.111 49.625 208.83l-.166.145c-26.031-154.889-68.432-285.832-126.025-389.194-32.539-58.397-70.596-76.301-119.772-56.345-50.028 20.301-100.035 69.528-146.623 119.702-7.522 8.101-15.223 16.521-22.671 24.663-42.505 46.472-86.457 94.524-132.158 122.707-14.768 9.108-29.589 15.18-42.857 17.558-7.01 1.257-13.533 1.472-19.392.64a41.67 41.67 0 0 1-6.69-1.485z"/><path d="M-14.226 633.201c-8.92-2.788-15.918-8.312-20.808-16.425-5.452-9.047-8.248-21.298-8.31-36.412-.005-1.339.01-2.716.049-4.097.669-24.789 7.263-52.405 13.642-79.113 1.288-5.398 2.622-10.98 3.874-16.41 7.458-32.333 12.2-61.403 14.492-88.867.282-3.381.53-6.78.735-10.103 3.75-60.753-3.846-115.759-21.97-159.074-21.039-50.213-53.225-81.475-90.631-88.024-21.876-3.801-58.462 8.86-86.064 40.412-16.528 18.893-27.489 42.188-31.702 67.366l-.165.055c2.208-13.197 6.226-25.857 11.941-37.625a135.319 135.319 0 0 1 19.862-29.955c12.569-14.368 27.905-25.837 44.348-33.167 15.198-6.775 30.067-9.376 41.869-7.324 19.586 3.43 37.692 13.54 53.815 30.048 14.604 14.954 27.013 34.479 36.882 58.034 18.134 43.339 25.734 98.379 21.982 159.165a471.325 471.325 0 0 1-.736 10.111c-2.295 27.482-7.038 56.567-14.5 88.917-1.252 5.43-2.585 11.013-3.874 16.413-6.373 26.691-12.964 54.287-13.632 79.042a134.94 134.94 0 0 0-.049 4.089c.126 31.24 11.731 47.561 28.992 52.957l.282.089c-.107-.037-.216-.068-.324-.102zm3.752.987c16.66 3.589 37.807-1.914 58.838-13.36 45.427-24.831 90.285-71.093 133.668-115.831 1.787-1.844 3.572-3.684 5.357-5.523 3.919-4.039 8.563-8.818 13.272-13.628 21.124-21.566 46.191-46.507 71.935-67.961 27.393-22.828 51.704-38.523 74.321-47.985 13.893-5.804 27.222-8.785 39.615-8.861 11.482-.071 22.543 2.352 32.872 7.2 17.844 8.378 34.151 24.087 49.852 48.029 15.318 23.317 27.073 44.432 36.992 66.452 14.041 31.217 25.388 65.675 34.636 95.264 21.433 68.946 38.824 145.064 51.689 226.241l-.165.142c-12.865-81.165-30.253-157.277-51.684-226.215-9.246-29.586-20.59-64.037-34.63-95.246-9.917-22.014-21.668-43.123-36.985-66.434-34.202-52.156-73.039-66.883-122.22-46.342-51.06 21.356-102.227 71.018-146.179 115.891a4095.414 4095.414 0 0 0-13.272 13.627c-1.784 1.838-3.57 3.68-5.357 5.524-43.396 44.752-88.27 91.03-133.73 115.88-11.257 6.126-22.25 10.351-32.673 12.555-9.7 2.047-18.479 2.241-26.152.581z"/><path d="M-4.938 621.556a41.593 41.593 0 0 1-3.145-1.121c-8.618-3.468-15.344-9.587-19.987-18.192-5.078-9.411-7.656-21.804-7.659-36.838.001-1.339.021-2.718.062-4.098.721-24.651 6.972-51.978 13.017-78.402 1.26-5.508 2.563-11.204 3.784-16.745 7.133-32.317 11.602-61.228 13.66-88.385.253-3.358.474-6.737.652-10.041 3.261-60.366-4.813-114.847-23.35-157.552-21.593-49.628-54.239-80.122-91.924-85.855-21.239-3.181-57.224 8.293-86.043 40.998-16.65 18.895-27.894 42.173-32.517 67.316l-.163.048c2.421-13.173 6.616-25.81 12.463-37.56a139.028 139.028 0 0 1 20.154-29.962c12.612-14.312 27.921-25.795 44.273-33.212 15.118-6.856 30.006-9.648 41.92-7.864 19.744 3.006 38.051 12.706 54.41 28.831 14.81 14.598 27.454 33.801 37.582 57.08 18.546 42.732 26.624 97.243 23.362 157.643-.18 3.307-.399 6.686-.654 10.049-2.06 27.172-6.532 56.1-13.67 88.435a2169.464 2169.464 0 0 1-3.784 16.747c-6.04 26.409-12.287 53.717-13.008 78.338-.04 1.381-.062 2.756-.062 4.091.015 61.087 43.53 68.132 86.648 48.018 45.403-21.399 91.533-66.133 136.144-109.394l.458-.444c4.322-4.194 8.791-8.529 13.222-12.803 46.747-45.092 96.513-90.894 145.805-112.129 13.83-5.943 27.16-9.315 39.618-10.022 11.586-.658 22.805.97 33.344 4.838 18.374 6.744 35.325 20.331 51.823 41.539 17.361 22.236 29.364 41.438 38.919 62.265 13.594 29.719 23.917 65.13 33.024 96.373 20.148 69.861 36.517 146.582 48.653 228.027l-.166.14c-12.135-81.437-28.503-158.15-48.648-228.005-9.106-31.237-19.427-66.642-33.017-96.352-9.551-20.82-21.55-40.016-38.905-62.244-35.761-45.971-75.375-57.517-124.67-36.336-49.261 21.222-99.006 67.003-145.735 112.079a6683.981 6683.981 0 0 0-13.222 12.803l-.458.444c-22.231 21.558-45.219 43.85-67.958 63.072-25.555 21.601-47.88 36.768-68.251 46.368-21.258 9.916-40.975 12.711-56 8.014z"/><path d="M591.437 799.054c-11.407-81.709-26.753-159.023-45.612-229.791-.807-2.98-1.612-5.972-2.42-8.973-8.219-30.54-16.716-62.119-28.983-88.485-11.925-25.526-27.329-43.67-40.826-58.052-37.191-39.852-77.584-48.218-127.12-26.333-50.894 22.566-103.235 70.086-145.292 108.27-2.524 2.292-5.048 4.589-7.575 6.888a6597.303 6597.303 0 0 1-5.598 5.09c-23.958 21.768-45.578 41.167-67.559 58.164-25.112 19.417-46.924 32.567-66.689 40.203-18.523 7.159-35.665 8.65-49.197 4.423a42.899 42.899 0 0 1-7.021-2.881c-8.079-4.203-14.36-10.88-18.67-19.846-4.704-9.783-7.06-22.327-7.006-37.287.006-1.341.032-2.72.076-4.102.775-24.504 6.681-51.527 12.394-77.658 1.23-5.629 2.503-11.451 3.694-17.116 6.807-32.31 11.003-61.064 12.83-87.905.228-3.34.419-6.696.571-9.979 2.77-59.98-5.78-113.935-24.727-156.031-22.15-49.045-55.254-78.765-93.217-83.689-25.988-3.283-61.348 13.804-85.988 41.549-16.787 18.903-28.323 42.175-33.364 67.299l-.163.042c2.64-13.154 7.014-25.778 13.002-37.519a143.066 143.066 0 0 1 20.463-29.982c12.651-14.246 27.93-25.739 44.184-33.232 15.033-6.93 29.932-9.913 41.952-8.393 19.903 2.58 38.408 11.871 55.005 27.612 15.012 14.242 27.893 33.126 38.282 56.128C-4.178 239.59 4.376 293.574 1.604 353.591a463.042 463.042 0 0 1-.57 9.984c-1.828 26.857-6.028 55.626-12.838 87.951a2207.714 2207.714 0 0 1-3.694 17.118c-5.71 26.117-11.612 53.122-12.386 77.597a156.82 156.82 0 0 0-.076 4.094c-.233 64.349 43.897 70.097 81.757 55.469 45.17-17.455 92.457-60.416 134.179-98.322 1.867-1.698 3.732-3.395 5.598-5.09 2.526-2.3 5.051-4.596 7.575-6.888 24.006-21.796 47.539-42.912 71.491-61.662 27.544-21.564 51.705-36.822 73.863-46.648 13.773-6.085 27.102-9.848 39.618-11.181 11.698-1.247 23.075-.413 33.817 2.477 18.944 5.098 36.542 16.565 53.795 35.05 13.5 14.389 28.912 32.541 40.842 58.081 12.274 26.377 20.773 57.964 28.993 88.51a5264.97 5264.97 0 0 0 2.42 8.973c18.861 70.775 34.209 148.096 45.617 229.814l-.168.136z"/><path d="M590.953 796.399c-10.884-83.54-25.208-161.456-42.577-231.58-1.039-4.196-2.091-8.515-3.108-12.69-7.29-29.904-14.826-60.826-26.681-85.875-11.866-24.947-28.266-41.228-42.746-53.862-38.463-33.814-79.635-39.002-129.569-16.327-47.679 21.745-95.032 62.054-140.826 101.035l-5.028 4.279a7934.15 7934.15 0 0 1-12.117 10.298c-45.704 38.703-90.175 74.466-131.828 86.848-10.107 3.005-19.706 4.276-28.535 3.784-9.48-.531-17.806-3.1-24.749-7.636-7.54-4.927-13.38-12.152-17.355-21.473-4.327-10.144-6.465-22.836-6.353-37.719.012-1.347.042-2.728.09-4.106.824-24.342 6.388-51.046 11.77-76.872 1.2-5.763 2.442-11.723 3.602-17.525 6.478-32.306 10.404-60.903 12-87.422.2-3.314.365-6.652.49-9.917 2.28-59.594-6.748-113.022-26.107-154.511-22.707-48.457-56.271-77.408-94.514-81.519-25.994-2.689-61.315 14.606-85.896 42.062-16.937 18.917-28.78 42.197-34.251 67.322l-.161.038c2.861-13.147 7.422-25.765 13.554-37.501a147.275 147.275 0 0 1 20.794-30.017c12.69-14.173 27.931-25.662 44.077-33.225 14.943-7.001 29.847-10.166 41.965-8.914 20.06 2.156 38.765 11.037 55.6 26.396 15.218 13.885 28.334 32.447 38.984 55.174 19.37 41.511 28.402 94.973 26.12 154.6-.125 3.268-.29 6.609-.488 9.922C5.513 376 1.585 404.611-4.897 436.935A2260.86 2260.86 0 0 1-8.5 454.462c-5.378 25.811-10.94 52.503-11.764 76.816a172.836 172.836 0 0 0-.09 4.098c-.474 63.377 39.395 74.057 76.867 62.917 41.619-12.371 86.072-48.121 131.756-86.806 4.039-3.424 8.145-6.918 12.117-10.299l5.028-4.279c22.479-19.133 45.722-38.921 69.37-56.694 26.783-20.13 50.173-34.645 71.509-44.377 13.723-6.232 27.054-10.385 39.621-12.342 11.816-1.841 23.352-1.802 34.289.115 19.569 3.43 37.808 12.773 55.767 28.561 14.486 12.641 30.896 28.928 42.768 53.895 11.862 25.06 19.401 55.991 26.692 85.903 1.017 4.175 2.07 8.491 3.108 12.689 17.371 70.131 31.697 148.053 42.581 231.6l-.166.14z"/><path d="M590.466 793.741c-10.192-84.214-23.496-162.731-39.542-233.367-1.206-5.308-2.415-10.814-3.584-16.137-6.444-29.342-13.108-59.683-24.593-83.532-11.91-24.596-29.261-38.912-44.665-49.672-39.54-27.888-81.491-29.895-132.02-6.322-44.151 20.701-88.192 55.83-130.784 89.801a6759.607 6759.607 0 0 1-13.621 10.846c-5.29 4.2-9.323 7.387-13.072 10.33-20.077 15.751-43.654 33.743-66.305 47.758-24.003 14.85-44.644 23.869-63.103 27.573-9.707 1.947-18.844 2.233-27.158.846-8.928-1.488-16.731-4.885-23.191-10.097-7-5.646-12.395-13.418-16.04-23.098-3.953-10.497-5.87-23.336-5.7-38.153.018-1.342.051-2.725.102-4.107.875-24.162 6.098-50.534 11.148-76.038 1.171-5.916 2.383-12.031 3.512-17.986 6.149-32.314 9.802-60.751 11.17-86.941.171-3.293.308-6.608.406-9.855 1.79-59.207-7.715-112.109-27.485-152.991-23.262-47.869-57.288-76.048-95.808-79.35-21.959-1.781-56.995 10.68-85.765 42.534-17.104 18.939-29.269 42.241-35.175 67.384l-.159.03c3.088-13.147 7.841-25.766 14.127-37.508a151.718 151.718 0 0 1 21.148-30.068c12.724-14.088 27.921-25.564 43.951-33.19 14.851-7.065 29.75-10.409 41.957-9.418 20.217 1.731 39.123 10.202 56.193 25.177 15.422 13.529 28.774 31.771 39.683 54.223 19.782 40.904 29.292 93.837 27.501 153.078a448.246 448.246 0 0 1-.408 9.862c-1.369 26.203-5.024 54.655-11.174 86.985-1.13 5.958-2.34 12.073-3.512 17.989-5.048 25.491-10.267 51.849-11.142 75.984-.05 1.38-.083 2.76-.1 4.099-.61 53.226 26.296 79.532 71.974 70.368 41.367-8.297 86.575-41.746 129.334-75.293 3.75-2.943 7.781-6.13 13.071-10.33 4.505-3.576 9.139-7.271 13.621-10.846 20.968-16.724 42.649-34.017 64.587-49.699 24.808-17.735 46.477-30.861 66.242-40.127 13.681-6.383 27.012-10.927 39.622-13.503 11.945-2.441 23.64-3.196 34.761-2.247 20.247 1.73 39.133 8.95 57.737 22.071 15.411 10.767 32.776 25.09 44.696 49.708 11.491 23.864 18.156 54.213 24.603 83.564 1.169 5.323 2.378 10.829 3.584 16.137 16.045 70.644 29.351 149.167 39.546 233.387l-.17.141z"/><path d="M589.976 791.084c-9.497-84.892-21.779-164.012-36.506-235.155-1.254-6.052-2.491-12.38-3.69-18.499-5.709-29.15-11.611-59.29-22.873-82.277-12.019-24.38-30.293-36.672-46.584-45.481-39.821-21.798-83.808-20.593-134.471 3.683-40.395 19.458-80.864 49.731-120.001 79.008-7.905 5.914-16.078 12.03-23.963 17.83-4.824 3.55-9.083 6.661-13.022 9.507-18.314 13.218-42.33 30-65.681 42.55-23.461 12.608-43.516 19.564-61.309 21.261-19.406 1.853-35.802-3.214-47.416-14.65-6.457-6.359-11.41-14.676-14.724-24.721-3.578-10.845-5.275-23.827-5.048-38.581.023-1.343.062-2.727.115-4.108.924-23.961 5.805-49.98 10.526-75.14 1.142-6.087 2.323-12.379 3.42-18.509 5.816-32.328 9.198-60.611 10.34-86.459.144-3.273.253-6.567.324-9.793 1.3-58.821-8.68-111.199-28.864-151.468-23.818-47.28-58.303-74.688-97.102-77.181-26.347-1.564-60.745 15.702-85.59 42.96-17.29 18.969-29.788 42.307-36.143 67.491l-.157.023c3.321-13.16 8.273-25.791 14.717-37.542 5.956-10.86 13.198-21 21.525-30.136 12.754-13.994 27.901-25.448 43.804-33.124 14.75-7.12 29.642-10.642 41.926-9.912 20.375 1.308 39.481 9.37 56.79 23.96 15.626 13.173 29.213 31.095 40.383 53.269 20.195 40.294 30.181 92.701 28.88 151.559-.07 3.226-.18 6.522-.325 9.797-1.143 25.865-4.527 54.16-10.343 86.503-1.098 6.13-2.28 12.425-3.422 18.512-4.719 25.147-9.598 51.154-10.52 75.091-.054 1.381-.092 2.76-.115 4.103-.817 52.815 24.261 81.905 67.084 77.819 39.04-3.727 84.069-32.856 126.911-63.777 3.938-2.847 8.197-5.955 13.02-9.506 7.883-5.8 16.057-11.914 23.961-17.827 39.145-29.283 79.622-59.564 120.035-79.03 13.654-6.543 26.986-11.474 39.626-14.663 12.089-3.047 23.943-4.597 35.231-4.607 20.994-.016 40.524 5.082 59.709 15.582 16.302 8.815 34.593 21.115 46.623 45.523 11.271 23.003 17.175 53.154 22.886 82.315 1.198 6.119 2.437 12.445 3.69 18.496 14.728 71.149 27.012 150.275 36.51 235.173l-.167.131z"/><path d="M589.491 788.428c-8.795-85.576-20.057-165.294-33.471-236.942-1.232-6.584-2.43-13.522-3.587-20.232-5.034-29.169-10.238-59.333-21.363-81.65-12.169-24.252-31.348-34.482-48.504-41.291-40.339-16.268-85.127-11.792-136.922 13.688-36.376 17.992-72.965 43.717-108.351 68.593-12.166 8.555-23.66 16.635-35.168 24.433a1186.492 1186.492 0 0 1-12.973 8.684c-26.103 17.187-46.774 29.051-65.053 37.335-22.932 10.395-42.4 15.288-59.516 14.956-6.64-.129-12.887-1.112-18.661-2.917-10.235-3.2-18.986-8.977-25.822-17.137-12.37-14.769-18.36-36.757-17.803-65.353.03-1.355.073-2.737.13-4.112.97-23.736 5.51-49.373 9.902-74.168 1.112-6.282 2.263-12.775 3.33-19.106 5.48-32.353 8.59-60.476 9.509-85.977.117-3.252.199-6.525.242-9.731.81-58.434-9.647-110.286-30.243-149.948-24.374-46.688-59.317-73.328-98.394-75.011-26.695-1.017-60.205 15.995-85.369 43.34-17.491 19.007-30.339 42.398-37.157 67.645l-.156.017c3.56-13.183 8.718-25.835 15.33-37.605a161.488 161.488 0 0 1 21.926-30.221c12.779-13.887 27.867-25.307 43.635-33.026 14.646-7.17 29.515-10.859 41.87-10.389 20.533.884 39.84 8.536 57.383 22.742 15.83 12.82 29.653 30.422 41.085 52.317 20.606 39.686 31.07 91.567 30.26 150.036a445.043 445.043 0 0 1-.243 9.735c-.919 25.514-4.03 53.653-9.512 86.019-1.067 6.33-2.218 12.826-3.331 19.108-4.39 24.783-8.93 50.409-9.898 74.124-.056 1.373-.1 2.755-.129 4.107-1.041 53.404 21.627 84.484 62.194 85.27 38.617.747 84.598-26 124.488-52.264a1204.7 1204.7 0 0 0 12.97-8.681c11.507-7.799 22.999-15.877 35.166-24.432 35.391-24.882 71.988-50.61 108.378-68.608 13.646-6.713 26.978-12.036 39.628-15.822 12.252-3.666 24.265-6.012 35.702-6.969 21.813-1.823 41.99 1.151 61.68 9.093 17.171 6.814 36.366 17.054 48.55 41.334 11.135 22.334 16.34 52.511 21.376 81.692 1.158 6.71 2.355 13.647 3.586 20.229 13.415 71.653 24.677 151.379 33.473 236.961l-.167.134z"/><path d="M589.011 785.774c-8.202-87.481-18.158-165.571-30.435-238.732-1.173-6.98-2.234-14.067-3.358-21.569-4.393-29.328-8.938-59.652-19.98-81.418-12.422-24.322-33.472-32.604-50.423-37.1-40.457-10.978-86.047-3.227-139.374 23.696-32.043 16.266-64.392 37.715-95.677 58.461-16.442 10.903-31.97 21.198-47.4 30.753-4.582 2.84-8.81 5.41-12.923 7.859-25.482 15.15-45.953 25.355-64.425 32.117-22.421 8.207-41.302 11.037-57.722 8.653-8.437-1.226-16.184-3.914-23.027-7.988-7.245-4.315-13.477-10.194-18.522-17.473-11.183-16.136-16.51-38.81-15.835-67.397.034-1.355.082-2.739.142-4.113 1.013-23.475 5.214-48.702 9.277-73.098 1.084-6.509 2.205-13.24 3.242-19.801 5.14-32.385 7.98-60.35 8.677-85.495.088-3.232.143-6.484.162-9.668.32-58.048-10.614-109.374-31.621-148.428-19.437-35.936-45.244-59.584-74.32-68.674A91.568 91.568 0 0 0-99.9 62.19c-26.607-.46-60.01 16.684-85.099 43.675-17.71 19.053-30.927 42.515-38.221 67.846l-.155.01c3.806-13.218 9.178-25.902 15.965-37.696a166.751 166.751 0 0 1 22.354-30.327c12.799-13.77 27.819-25.143 43.441-32.895 14.747-7.317 29.198-11.07 41.79-10.85 20.69.46 40.197 7.704 57.978 21.524C-25.812 95.94-11.752 113.22-.06 134.838c21.019 39.077 31.96 90.432 31.64 148.514-.017 3.184-.071 6.44-.16 9.674-.7 25.157-3.538 53.136-8.681 85.536a2429.63 2429.63 0 0 1-3.242 19.804c-4.061 24.386-8.261 49.602-9.274 73.059a245.582 245.582 0 0 0-.142 4.108c-1.261 53.455 19.625 87.247 57.304 92.721 38.127 5.536 85.261-18.87 122.065-40.751a848.813 848.813 0 0 0 12.92-7.857c15.427-9.551 30.955-19.849 47.395-30.75 31.288-20.746 63.643-42.202 95.697-58.472 27.455-13.862 52.25-22.467 75.804-26.311 22.716-3.708 43.537-2.856 63.652 2.603 11.502 3.05 20.359 6.766 27.877 11.689 9.705 6.357 17.097 14.683 22.599 25.457 11.053 21.785 15.598 52.125 19.994 81.467 1.124 7.502 2.187 14.587 3.356 21.566 12.278 73.164 22.235 151.259 30.438 238.746l-.171.133z"/><path d="M588.52 783.116c-7.481-88.186-16.445-166.859-27.4-240.521-1.084-7.287-2.036-14.744-3.045-22.638-3.778-29.577-7.683-60.164-18.679-81.455-12.624-24.29-34.604-30.348-52.341-32.912-40.048-6.01-86.441 5.015-141.825 33.701-27.329 14.23-55.009 31.64-81.778 48.477-21.161 13.309-41.148 25.882-60.854 36.923a634.324 634.324 0 0 1-12.874 7.035c-24.617 13.049-45.484 21.846-63.795 26.893-21.926 6.044-40.222 6.816-55.932 2.357-7.993-2.27-15.278-5.951-21.647-10.943-6.676-5.235-12.384-11.939-16.965-19.932-9.998-17.446-14.665-40.807-13.87-69.435.04-1.351.091-2.736.155-4.117 1.054-23.173 4.916-47.945 8.65-71.902 1.056-6.777 2.15-13.789 3.156-20.622 4.8-32.428 7.366-60.234 7.846-85.013.061-3.211.089-6.443.08-9.606-.169-57.661-11.581-108.462-33-146.908C-21.085 76.996-56.949 51.897-96.58 51.826c-26.492.08-59.769 17.333-84.775 43.955-17.948 19.109-31.551 42.657-39.341 68.102l-.152.003c4.061-13.264 9.655-25.99 16.628-37.822a172.435 172.435 0 0 1 22.81-30.452c12.811-13.638 27.756-24.956 43.222-32.73 14.628-7.352 29.041-11.257 41.683-11.295 20.848.039 40.556 6.87 58.572 20.306 16.239 12.11 30.533 29.07 42.486 50.41 21.433 38.467 32.85 89.298 33.019 146.993.01 3.164-.017 6.399-.08 9.612-.48 24.792-3.048 52.611-7.849 85.052-1.005 6.834-2.1 13.845-3.156 20.625-3.732 23.946-7.593 48.708-8.646 71.865a267.304 267.304 0 0 0-.155 4.112c-1.514 54.575 17.098 90.155 52.412 100.174 28.653 8.133 66.671-1.158 119.642-29.237a641.684 641.684 0 0 0 12.869-7.033c19.702-11.04 39.687-23.608 60.845-36.918 26.773-16.839 54.457-34.252 81.794-48.485 27.925-14.465 52.874-24.221 76.278-29.832 23.709-5.683 45.175-6.956 65.622-3.886 17.756 2.565 39.761 8.633 52.404 32.961 11.007 21.316 14.915 51.917 18.695 81.508 1.007 7.893 1.961 15.347 3.044 22.632 10.957 73.666 19.92 152.344 27.4 240.534l-.17.136z"/><path d="M588.036 780.46c-6.754-88.891-14.722-168.151-24.364-242.307-.978-7.528-1.803-15.291-2.676-23.509-3.174-29.896-6.458-60.81-17.433-81.69-12.845-24.285-35.745-28.107-54.26-28.725-39.464-1.504-85.308 12.385-144.277 43.709-22.148 11.823-44.642 25.356-66.395 38.442-26.421 15.894-51.377 30.909-75.795 43.146a484.555 484.555 0 0 1-12.824 6.21c-24.182 11.246-44.843 18.333-63.163 21.666-10.262 1.867-19.887 2.534-28.608 1.985-9.302-.587-17.894-2.579-25.535-5.92-15.504-6.779-27.506-18.989-35.673-36.291-8.819-18.685-12.826-42.73-11.906-71.471.047-1.36.104-2.745.168-4.118 1.09-22.816 4.611-47.078 8.017-70.539 1.03-7.102 2.097-14.446 3.075-21.61 4.454-32.48 6.748-60.13 7.014-84.532.035-3.192.034-6.404-.002-9.544-.658-57.277-12.546-107.55-34.379-145.384-26.043-44.909-62.366-69.236-102.277-68.504-42.818.978-102.748 44.301-124.908 112.59l-.151-.004c5.543-17.083 13.494-33.134 23.63-47.712 9.257-13.313 20.152-25.161 32.379-35.21 11.368-9.344 23.364-16.73 35.653-21.953 11.687-4.967 23.262-7.718 33.47-7.951 21.005-.385 40.912 6.038 59.166 19.091 16.442 11.757 30.972 28.397 43.186 49.459 21.843 37.859 33.739 88.162 34.399 145.471.035 3.143.037 6.354.002 9.549-.266 24.413-2.562 52.078-7.017 84.571-.978 7.164-2.044 14.508-3.076 21.613-3.404 23.453-6.924 47.705-8.013 70.507a312.053 312.053 0 0 0-.17 4.116c-1.765 55.235 15.112 93.455 47.52 107.627 27.438 11.993 65.78 6.198 117.22-17.724a492.107 492.107 0 0 0 12.819-6.208c24.412-12.234 49.365-27.248 75.782-43.14 21.755-13.089 44.252-26.623 66.404-38.447 58.992-31.338 104.857-45.232 144.343-43.728 12.442.414 22.073 2.314 30.312 5.982 10.533 4.689 18.389 12.142 24.02 22.789 10.988 20.903 14.273 51.835 17.45 81.748.873 8.216 1.697 15.978 2.675 23.504 9.643 74.161 17.611 153.424 24.365 242.32l-.167.126z"/><path d="M587.553 777.805c-6.019-89.608-12.997-169.452-21.328-244.096-.862-7.723-1.547-15.745-2.271-24.241-2.582-30.264-5.252-61.56-16.226-82.065-13.226-24.574-38.396-25.773-56.177-24.537-48.175 3.155-101.207 28.924-146.729 53.72-16.383 8.962-33.054 18.669-49.178 28.055-32.343 18.83-62.892 36.615-92.569 49.721a396.586 396.586 0 0 1-12.774 5.388c-23.815 9.513-44.269 14.889-62.528 16.433-20.7 1.752-38.314-1.687-52.357-10.224-14.426-8.77-25.439-22.804-32.73-41.711-7.65-19.83-10.996-44.558-9.948-73.501.053-1.358.113-2.746.181-4.123 1.12-22.381 4.302-46.052 7.379-68.946 1.009-7.503 2.05-15.259 3-22.827 4.163-32.996 6.127-59.702 6.184-84.05.008-3.172-.02-6.36-.084-9.482-1.152-56.888-13.518-106.636-35.76-143.865-26.601-44.312-63.383-67.87-103.573-66.335-43.336 1.831-102.202 44.645-125.701 113.127l-.147-.012c5.83-16.99 13.966-32.964 24.181-47.478 9.361-13.297 20.291-25.15 32.488-35.224 11.374-9.395 23.36-16.866 35.63-22.21 11.683-5.088 23.309-8.007 33.622-8.443 21.165-.808 41.27 5.206 59.76 17.873 16.647 11.403 31.413 27.724 43.888 48.506 22.257 37.249 34.629 87.026 35.779 143.949.062 3.124.09 6.315.084 9.487-.056 24.359-2.023 51.079-6.187 84.088-.95 7.569-1.992 15.327-3.001 22.83-3.075 22.886-6.255 46.551-7.376 68.921-.069 1.377-.13 2.761-.182 4.119-2.036 56.262 13.103 97.131 42.629 115.081 26.481 16.098 64.032 14.065 114.799-6.213a391.631 391.631 0 0 0 12.768-5.384c29.669-13.103 60.213-30.885 92.552-49.714 16.123-9.386 32.797-19.095 49.182-28.059 30.61-16.671 55.15-28.387 77.223-36.87 25.984-9.986 48.738-15.502 69.563-16.866 12.717-.884 23.03.139 31.53 3.131 10.943 3.851 19.033 10.868 24.729 21.453 10.989 20.53 13.66 51.845 16.243 82.128.725 8.494 1.409 16.515 2.272 24.234 8.332 74.647 15.308 154.495 21.329 244.107l-.169.125z"/><path d="M587.064 775.146c-5.281-90.326-11.264-170.755-18.292-245.885-.737-7.878-1.274-16.125-1.841-24.856-1.995-30.673-4.057-62.391-15.043-82.554-13.474-24.604-39.608-23.398-58.095-20.348-45.585 7.364-94.532 33.218-149.181 63.726-9.868 5.531-19.917 11.282-29.637 16.846-37.379 21.394-76.029 43.516-111.667 57.119a317.997 317.997 0 0 1-12.725 4.563c-23.181 7.725-44.004 11.493-61.893 11.199-20.264-.333-37.278-5.888-50.574-16.509-13.355-10.67-23.377-26.528-29.788-47.135-6.487-20.854-9.176-46.265-7.991-75.527.057-1.359.123-2.747.194-4.123 1.144-21.842 3.983-44.818 6.727-67.037.99-8.006 2.012-16.283 2.936-24.36 3.805-33.073 5.506-59.627 5.353-83.567-.02-3.143-.076-6.314-.166-9.42-1.635-56.508-14.476-105.729-37.134-142.349C-8.909 41.215-46.15 18.427-86.619 20.763c-42.311 2.59-101.023 43.304-126.495 113.66l-.144-.019c6.118-16.9 14.44-32.795 24.733-47.244 9.464-13.284 20.43-25.138 32.595-35.238 22.443-18.632 47.731-30.076 69.381-31.4 21.322-1.23 41.628 4.374 60.356 16.656 16.85 11.052 31.85 27.05 44.587 47.552 22.67 36.64 35.519 85.892 37.158 142.429.09 3.109.146 6.279.166 9.425.152 23.953-1.548 50.518-5.355 83.604-.925 8.079-1.947 16.356-2.936 24.362-2.744 22.214-5.582 45.185-6.726 67.016a405.74 405.74 0 0 0-.195 4.121c-2.37 58.544 10.678 100.916 37.736 122.536 25.055 20.018 62.862 21.802 112.377 5.301a319.606 319.606 0 0 0 12.717-4.56c35.626-13.599 74.271-35.717 111.643-57.109 9.72-5.564 19.769-11.315 29.638-16.845 23.922-13.355 51.627-28.589 77.696-40.39 27.269-12.343 50.668-19.982 71.534-23.353 13.156-2.169 23.869-2.079 32.747.276 11.198 2.969 19.755 9.738 25.439 20.117 4.922 9.032 8.495 21.333 10.925 37.606 2.147 14.369 3.158 29.95 4.138 45.015.567 8.729 1.103 16.975 1.84 24.851 7.029 75.133 13.013 155.564 18.294 245.893l-.166.121z"/><path d="M586.582 772.49c-4.537-91.05-9.528-172.064-15.258-247.671-.608-8.006-.989-16.448-1.393-25.384-1.409-31.115-2.866-63.289-13.877-83.13-10.308-18.5-29.939-23.786-60.014-16.161-42 10.543-86.527 36.219-133.67 63.405a5988.964 5988.964 0 0 1-17.964 10.332c-2.36 1.354-4.724 2.712-7.086 4.069-44.861 25.768-91.249 52.414-133.773 66.082a263.578 263.578 0 0 1-12.675 3.739c-22.921 6.107-43.529 8.113-61.25 5.96-19.842-2.412-36.26-10.08-48.792-22.792-12.3-12.476-21.33-30.159-26.84-52.558-5.342-21.711-7.373-47.802-6.038-77.553.063-1.36.133-2.75.208-4.127 1.157-21.142 3.65-43.263 6.06-64.656.978-8.664 1.986-17.623 2.89-26.368 3.442-33.163 4.881-59.565 4.523-83.086-.048-3.125-.13-6.272-.248-9.357-2.13-56.121-15.447-104.819-38.518-140.828C-4.844 29.29-42.546 7.27-83.293 10.409c-41.877 3.34-100.721 44.496-127.289 114.195l-.143-.023c6.409-16.812 14.915-32.628 25.284-47.009 9.568-13.27 20.571-25.13 32.703-35.252 22.409-18.695 47.744-30.412 69.512-32.148 21.48-1.654 41.986 3.54 60.95 15.438 17.054 10.696 32.292 26.374 45.29 46.597 23.083 36.032 36.41 84.757 38.538 140.906.117 3.086.201 6.238.249 9.363.357 23.534-1.08 49.944-4.523 83.12-.903 8.745-1.915 17.707-2.89 26.371-2.41 21.387-4.903 43.504-6.06 64.638a506.218 506.218 0 0 0-.208 4.124c-2.714 60.494 8.643 105.442 32.845 129.989 23.89 24.232 60.885 29.887 109.955 16.812a264.371 264.371 0 0 0 12.667-3.736c42.509-13.661 88.889-40.302 133.741-66.068 2.364-1.358 4.726-2.714 7.087-4.068 6.024-3.447 12.092-6.946 17.962-10.33 47.153-27.191 91.692-52.874 133.711-63.422 13.587-3.445 24.698-4.287 33.966-2.577 11.6 2.14 20.397 8.46 26.15 18.781 4.931 8.886 8.389 21.201 10.568 37.649 1.923 14.512 2.637 30.294 3.329 45.556.405 8.934.786 17.373 1.393 25.376 5.731 75.61 10.722 156.627 15.257 247.68l-.169.119z"/><path d="M586.089 769.832c-3.491-84.615-7.602-168.547-12.221-249.461-.489-8.196-.718-16.91-.962-26.134-.791-30.004-1.688-64.01-12.697-83.484-10.506-18.535-30.764-22.451-61.932-11.976-37.03 12.387-75.113 35.715-115.432 60.412-12.626 7.733-25.685 15.733-38.654 23.333-22.654 13.305-46.978 27.273-71.352 39.301-26.104 12.882-48.695 21.725-69.066 27.037a222.638 222.638 0 0 1-12.625 2.915c-22.666 4.513-43.047 4.742-60.579.681-19.406-4.498-35.234-14.263-47.042-29.034-21.708-27.5-31.122-73.781-27.978-137.56.068-1.361.144-2.751.22-4.128 1.153-20.194 3.294-41.208 5.366-61.532.974-9.566 1.983-19.458 2.871-29.115 3.076-33.269 4.25-59.517 3.692-82.603a411.934 411.934 0 0 0-.33-9.296C64.755 143.451 50.959 95.281 27.476 59.88-.79 17.362-38.953-3.884-79.978.05c-42.474 4.158-100.11 44.903-128.084 114.732l-.14-.033c6.701-16.726 15.394-32.463 25.837-46.775 9.675-13.258 20.714-25.124 32.811-35.266 11.396-9.556 23.36-17.287 35.557-22.98C-102.156 4.203-90.688.866-79.913-.19c21.638-2.074 42.345 2.708 61.545 14.22 17.257 10.348 32.73 25.704 45.99 45.647 23.496 35.422 37.3 83.62 39.917 139.386.143 3.064.255 6.193.33 9.301.556 23.099-.617 49.357-3.693 82.637-.889 9.659-1.898 19.552-2.873 29.12-2.07 20.321-4.213 41.333-5.364 61.519-.08 1.378-.153 2.767-.222 4.128-3.141 63.729 6.263 109.972 27.95 137.444 22.439 28.068 59.624 37.864 107.536 28.324a223.863 223.863 0 0 0 12.617-2.912c45.545-11.875 94.321-39.274 140.377-66.322 12.969-7.6 26.024-15.598 38.65-23.331 40.328-24.703 78.42-48.036 115.467-60.428 31.217-10.492 51.513-6.564 62.044 12.014 4.93 8.721 8.263 21.018 10.19 37.589 1.7 14.612 2.119 30.558 2.527 45.976.244 9.223.473 17.934.962 26.126 4.62 80.917 8.731 164.848 12.221 249.466l-.169.117z"/><path d="M585.609 767.178a32563.385 32563.385 0 0 0-9.187-251.25c-.344-8.239-.41-17.054-.482-26.386-.231-30.523-.494-65.12-11.562-84.341-10.711-18.573-31.598-21.12-63.851-7.791-33.779 13.934-69.39 37.386-103.83 60.069-17.269 11.373-35.126 23.134-52.707 33.686-27.758 16.678-50.359 28.954-71.128 38.637-25.61 11.94-48.131 19.754-68.847 23.89-4.253.85-8.484 1.553-12.575 2.09-21.313 2.793-40.538 1.568-57.195-3.637a99.31 99.31 0 0 1-2.749-.904c-19.024-6.564-34.25-18.453-45.254-35.334-5.299-8.179-9.77-17.858-13.29-28.767-3.308-10.253-5.878-21.916-7.638-34.662-3.166-22.932-3.87-49.618-2.152-81.579.075-1.374.152-2.751.234-4.132 1.118-18.825 2.896-38.312 4.617-57.159.992-10.878 2.02-22.129 2.907-33.115 2.738-33.845 3.622-59.173 2.86-82.121-.103-3.087-.24-6.192-.412-9.234-3.104-55.346-17.377-102.989-41.27-137.783C3.275 5.438-35.347-15.038-76.65-10.305c-42.013 4.858-99.771 46.01-128.878 115.265l-.136-.039c13.557-32.258 34.066-60.551 59.307-81.82 11.409-9.613 23.363-17.429 35.534-23.236 11.843-5.65 23.361-9.152 34.237-10.41 21.796-2.498 42.703 1.876 62.14 13.003C3.013 12.454 18.721 27.49 32.241 47.15c23.909 34.817 38.189 82.489 41.296 137.867.17 3.044.31 6.153.412 9.239.761 22.961-.121 48.298-2.862 82.156-.888 10.988-1.914 22.239-2.908 33.117-1.72 18.844-3.499 38.329-4.616 57.149a752.57 752.57 0 0 0-.234 4.129c-3.652 67.916 3.89 115.313 23.057 144.9 26.614 40.826 71.851 44.198 105.114 39.838a191.99 191.99 0 0 0 12.568-2.09c47.646-9.514 99.806-38.402 139.924-62.505 17.578-10.548 35.434-22.309 52.7-33.68 34.447-22.686 70.067-46.147 103.862-60.086 14.432-5.965 26.34-8.676 36.4-8.285 12.407.482 21.683 5.901 27.569 16.11 4.957 8.607 8.182 20.961 9.862 37.766 1.48 14.806 1.603 30.999 1.722 46.662.071 9.329.137 18.141.482 26.375a32613.172 32613.172 0 0 1 9.188 251.25l-.169.115z"/><path d="m585.123 764.522-6.151-253.036c-.201-8.264-.105-17.158-.005-26.572.332-31.067.708-66.278-10.426-85.26-10.769-18.353-32.896-19.566-65.77-3.602-31.603 15.345-64.419 38.632-96.155 61.152-20.687 14.68-42.077 29.858-62.834 42.613-62.388 38.336-110.705 57.394-152.055 59.978-17.154 1.071-32.898-.613-46.977-5.014a100.903 100.903 0 0 1-12.333-4.749c-18.649-8.637-33.274-22.645-43.467-41.633-9.447-17.6-15.332-40.116-17.987-68.837-2.12-22.934-2.182-49.505-.194-83.619 1.05-18.004 2.555-36.579 4.012-54.543 3.295-40.653 6.703-82.689 5.078-121.131-2.495-58.962-17.415-109.253-43.146-145.438C7.333-6.484-31.747-26.19-73.328-20.659c-40.259 5.355-98.009 43.876-129.673 115.8l-.133-.047c14.153-32.148 34.89-60.364 59.968-81.599 22.675-19.2 47.499-31.414 69.9-34.393 21.954-2.92 43.062 1.045 62.733 11.785C7.13.53 23.074 15.248 36.857 34.63c12.732 17.904 22.89 39.41 30.194 63.918 7.365 24.715 11.731 52.168 12.977 81.6 1.627 38.455-1.78 80.502-5.077 121.165-1.456 17.961-2.961 36.535-4.01 54.536-2.903 49.776-3.46 112.074 18.162 152.355 24.797 46.193 69.532 53.42 102.694 51.349 41.329-2.581 89.625-21.632 151.989-59.955 20.749-12.749 42.137-27.927 62.821-42.603 31.742-22.524 64.566-45.816 96.185-61.17 32.93-15.991 55.103-14.769 65.898 3.633 4.985 8.499 8.104 20.918 9.534 37.971 1.258 15.011 1.083 31.467.913 47.38-.1 9.414-.195 18.303.005 26.563l6.152 253.037-.171.114z"/><path d="M591.618 747.249c.697-69.701.062-126.636-1.998-179.172-.993-25.519-2.36-50.759-4.064-75.02-.515-7.338-.827-15.07-1.157-23.257-.829-20.577-1.686-41.853-5.924-58.769-2.269-9.096-5.238-16.029-9.075-21.195-11.733-15.962-34.042-14.808-66.309 3.435-16.691 9.422-33.15 20.936-47.049 30.957-14.714 10.608-29.899 22.632-44.585 34.259-21.108 16.715-42.934 33.998-64.424 47.983-13.091 8.542-25.785 15.864-37.733 21.762-23.903 11.801-47.74 20.23-70.846 25.054-14.245 2.908-27.865 4.214-40.479 3.881-10.866-.298-21.254-1.756-30.876-4.336-14.401-3.858-27.265-10.333-38.232-19.251-11.661-9.483-21.259-21.801-28.527-36.615-6.48-13.209-11.268-28.787-14.637-47.626-6.287-35.083-6.803-73.537-6.548-103.119.15-14.592.538-29.4.912-43.72 1.082-41.24 2.102-80.192-1.985-116.451-3.405-29.407-10.274-56.013-20.42-79.085-7.796-17.73-17.838-33.377-29.846-46.506a154.87 154.87 0 0 0-8.883-8.95C5.871 39.415-10.274 29.153-29.052 21.005-47.963 12.743-65.865 9.18-83.78 10.119c-10.117.506-20.753 2.936-31.614 7.22-38.346 15.128-73.616 49.62-94.349 92.27l-.158-.079c5.527-11.37 12.074-22.223 19.46-32.265 7.016-9.537 14.835-18.407 23.239-26.363 15.876-15.027 33.805-26.733 51.847-33.85 10.879-4.293 21.531-6.726 31.664-7.232 17.933-.939 35.85 2.626 54.776 10.895 18.788 8.152 34.94 18.422 48.012 30.523a154.782 154.782 0 0 1 8.89 8.957c12.017 13.138 22.067 28.797 29.87 46.543 10.152 23.087 17.026 49.716 20.431 79.142 4.09 36.28 3.069 75.243 1.989 116.494-.376 14.32-.763 29.125-.914 43.715-.254 29.568.261 68.004 6.546 103.064 3.364 18.82 8.147 34.383 14.62 47.576 14.224 28.991 36.661 47.768 66.691 55.808 9.614 2.577 19.994 4.033 30.852 4.33 12.605.331 26.215-.973 40.448-3.879 23.093-4.821 46.915-13.244 70.803-25.038 11.94-5.893 24.627-13.212 37.706-21.747 21.478-13.978 43.3-31.257 64.401-47.966 14.688-11.629 29.876-23.658 44.597-34.269 13.906-10.027 30.372-21.544 47.075-30.972 14.367-8.123 26.951-12.903 37.408-14.209 12.844-1.605 22.625 2.027 29.068 10.793 3.848 5.183 6.825 12.135 9.101 21.252 4.244 16.941 5.102 38.231 5.931 58.821.33 8.184.642 15.917 1.157 23.249 1.705 24.264 3.073 49.507 4.065 75.031 2.059 52.542 2.693 109.482 1.997 179.188l-.211.128z"/><path d="M598.117 729.969c3.023-70.156 3.12-129.624.296-181.799-1.363-25.48-3.472-50.224-6.269-73.542-.743-6.187-1.358-12.568-2.011-19.322-1.954-20.226-3.975-41.141-9.529-56.91-2.792-7.99-6.174-14.002-10.34-18.382-15.952-16.779-45.155-3.568-66.846 10.468-15.353 9.907-30.585 21.773-46.135 34.076-13.611 10.77-27.186 22.689-41.555 35.306-21.329 18.729-43.385 38.096-65.44 53.252-13.114 9.056-25.909 16.432-38.028 21.921-22.575 10.227-45.21 16.572-69.201 19.403-13.425 1.582-26.492 1.615-38.835.093-10.406-1.304-20.32-3.707-29.466-7.148-13.61-5.111-25.773-12.762-36.152-22.74-10.9-10.482-19.942-23.644-26.874-39.121-6.074-13.558-10.723-29.478-14.215-48.667-6.359-34.81-8.673-71.92-9.977-100.362-.482-10.529-.87-21.092-1.245-31.311-1.493-40.692-2.903-79.13-9.988-113.356-5.295-25.58-13.751-48.453-25.132-67.982-8.61-14.777-19.16-27.128-32.248-37.762a141.133 141.133 0 0 0-9.332-6.955C-4.339 69.65-20.547 62.646-40.286 54.47c-14.201-5.957-33.165-12.885-53.945-13.58-9.821-.375-20.102 1.092-30.555 4.356-36.807 11.496-71.086 40.963-91.7 78.827l-.175-.121a179.437 179.437 0 0 1 19.086-28.288c6.859-8.32 14.464-15.974 22.606-22.76 15.471-12.889 32.845-22.575 50.244-28.009 10.474-3.27 20.773-4.74 30.612-4.365 20.8.694 39.778 7.629 53.989 13.589C-20.38 62.297-4.165 69.303 9.779 78.788a142.664 142.664 0 0 1 9.34 6.96c13.1 10.645 23.66 23.008 32.28 37.801 11.393 19.549 19.857 42.44 25.157 68.046 7.09 34.251 8.502 72.701 9.995 113.409.374 10.216.762 20.779 1.245 31.305 1.306 28.432 3.618 65.529 9.972 100.321 3.486 19.169 8.131 35.071 14.198 48.614 13.63 30.432 34.812 51.219 62.952 61.787 9.138 3.436 19.042 5.838 29.439 7.14 12.331 1.521 25.386 1.489 38.8-.094 23.97-2.826 46.587-9.167 69.142-19.385 12.104-5.483 24.882-12.847 37.982-21.895 22.035-15.143 44.081-34.502 65.402-53.221 14.375-12.623 27.952-24.544 41.571-35.319 15.559-12.312 30.797-24.181 46.165-34.099 14.062-9.1 26.567-14.899 37.171-17.241 12.857-2.839 22.911-.56 29.881 6.771 4.181 4.398 7.575 10.43 10.376 18.443 5.562 15.799 7.584 36.732 9.541 56.976.652 6.751 1.269 13.13 2.011 19.313 2.798 23.327 4.907 48.079 6.27 73.567 2.824 52.188 2.728 111.667-.297 181.839l-.255.143z"/><path d="M604.614 712.691c5.37-71.571 6.218-131.896 2.59-184.423-1.735-25.443-4.586-49.687-8.474-72.065-.83-4.784-1.631-9.836-2.406-14.719-3.196-20.176-6.502-41.038-13.59-55.719-3.312-6.926-7.108-12.02-11.603-15.571-17.255-13.632-46.169 1.993-67.386 17.499-14.357 10.457-28.723 22.904-42.618 34.944l-2.602 2.254c-12.61 10.921-25.333 23.244-38.805 36.293-21.451 20.779-43.631 42.262-66.177 58.581-13.157 9.582-26.051 17.011-38.325 22.08-21.401 8.837-42.869 13.206-67.558 13.75-12.766.281-25.279-.962-37.19-3.697-9.945-2.314-19.385-5.663-28.058-9.962-26.265-12.993-46.213-35.822-59.292-67.852-5.654-13.846-10.166-30.104-13.79-49.706-6.158-33.115-10-66.375-13.404-97.603-.458-4.187-.904-8.343-1.347-12.466-4.6-42.772-8.943-83.172-20.046-116.692-7.248-21.884-17.291-41.022-29.847-56.883-9.22-11.643-20.553-21.136-34.648-29.019a140.24 140.24 0 0 0-9.78-4.961c-8.34-3.803-17.592-6.89-27.388-10.156-7.869-2.625-16.004-5.338-24.394-8.655-16.162-6.506-34.48-13.878-53.164-16.273-9.64-1.236-19.564-.733-29.497 1.494-35.253 7.907-68.544 32.353-89.054 65.393l-.181-.181a152.859 152.859 0 0 1 18.711-24.31 150.397 150.397 0 0 1 21.971-19.156c15.066-10.74 31.887-18.401 48.641-22.16 9.956-2.233 19.901-2.737 29.56-1.499 18.703 2.4 37.029 9.776 53.197 16.285 8.386 3.312 16.52 6.028 24.386 8.652 9.8 3.268 19.055 6.355 27.401 10.163a142.027 142.027 0 0 1 9.79 4.966c14.112 7.892 25.46 17.396 34.69 29.057C57.5 156.253 67.554 175.412 74.81 197.32c11.113 33.55 15.458 73.97 20.06 116.761.442 4.123.89 8.277 1.345 12.465 3.405 31.223 7.244 64.474 13.401 97.578 3.621 19.581 8.127 35.823 13.775 49.652 13.06 31.989 32.984 54.787 59.215 67.764 8.663 4.292 18.093 7.639 28.027 9.95 11.899 2.73 24.4 3.972 37.152 3.692 24.665-.544 46.107-4.907 67.48-13.732 12.248-5.058 25.118-12.473 38.252-22.039 22.517-16.298 44.684-37.77 66.123-58.536 13.477-13.055 26.207-25.385 38.827-36.313l2.602-2.254c13.902-12.045 28.276-24.501 42.649-34.969 21.284-15.556 50.295-31.223 67.63-17.529 4.516 3.568 8.327 8.68 11.65 15.634 7.104 14.712 10.414 35.596 13.613 55.794.773 4.884 1.574 9.935 2.404 14.716 3.889 22.389 6.742 46.647 8.477 72.103 3.629 52.549 2.781 112.896-2.591 184.49l-.287.144z"/><path d="M611.111 695.409c7.622-71.973 9.266-134.905 4.884-187.043-2.107-25.402-5.699-49.15-10.677-70.584-.719-3.096-1.44-6.301-2.138-9.401-4.611-20.478-9.379-41.656-18.312-55.241-3.816-5.874-8.024-10.047-12.866-12.762-18.575-10.411-47.19 7.591-67.926 24.525-12.848 10.451-25.593 22.554-37.918 34.26a3473.171 3473.171 0 0 1-6.39 6.06c-11.689 11.052-23.631 23.747-36.274 37.185-21.495 22.847-43.72 46.469-66.697 64.009-13.494 10.298-26.126 17.573-38.625 22.241-26.141 9.764-47.99 9.571-65.915 8.099a144.995 144.995 0 0 1-35.545-7.486c-9.478-3.322-18.444-7.621-26.648-12.775-24.333-15.265-43.025-40.11-55.557-73.846-5.215-14.034-9.587-30.632-13.367-50.744-3.835-20.275-7.19-39.679-10.435-58.445-2.204-12.756-4.287-24.803-6.396-36.395-7.968-43.823-15.843-82.623-31.548-113.653-9.2-18.175-20.828-33.581-34.562-45.788-9.844-8.75-21.617-15.193-37.047-20.279a158.993 158.993 0 0 0-10.23-2.967c-5.256-1.316-10.824-2.373-16.718-3.49-11.311-2.146-24.134-4.578-36.968-9.473-4.887-1.865-9.823-3.884-14.596-5.838-12.277-5.026-24.972-10.223-37.786-13.131-9.412-2.134-18.982-2.595-28.442-1.368-33.679 4.371-65.982 23.799-86.411 51.968l-.173-.259a129.482 129.482 0 0 1 18.333-20.328 131.255 131.255 0 0 1 21.334-15.555c14.663-8.574 30.928-14.211 47.039-16.301 9.483-1.23 19.075-.77 28.506 1.369 12.829 2.91 25.528 8.111 37.813 13.139 4.771 1.955 9.707 3.973 14.593 5.838 12.822 4.891 25.634 7.323 36.94 9.466 5.896 1.118 11.466 2.176 16.728 3.494 3.459.879 6.903 1.879 10.24 2.97 15.452 5.091 27.241 11.546 37.102 20.31 13.751 12.223 25.396 27.647 34.607 45.846 7.094 14.016 13.15 30.856 18.514 51.482 4.803 18.464 8.694 38.24 13.061 62.254 2.107 11.595 4.19 23.642 6.396 36.398 3.245 18.764 6.599 38.168 10.433 58.44 3.776 20.091 8.143 36.673 13.351 50.691 12.515 33.69 31.181 58.5 55.48 73.745 8.194 5.148 17.148 9.441 26.616 12.759a144.67 144.67 0 0 0 35.504 7.476c17.902 1.473 39.723 1.665 65.818-8.081 12.463-4.656 25.063-11.911 38.521-22.184 22.938-17.509 45.146-41.113 66.623-63.941 12.651-13.446 24.6-26.147 36.301-37.211 2.128-2.012 4.257-4.034 6.388-6.058 12.333-11.714 25.086-23.826 37.951-34.29 13.49-11.017 25.85-18.874 36.734-23.351 12.892-5.303 23.481-5.72 31.471-1.239 4.866 2.728 9.095 6.921 12.927 12.819 8.957 13.622 13.73 34.825 18.347 55.329.698 3.1 1.419 6.305 2.138 9.398 4.981 21.452 8.575 45.221 10.684 70.643 2.326 27.685 2.971 58.6 1.914 91.887-.934 29.42-3.222 61.47-6.799 95.259l-.325.148z"/><path d="M617.613 678.125c9.959-73.374 12.373-137.184 7.176-189.659-2.48-25.362-6.814-48.61-12.879-69.104l-.866-2.929c-6.297-21.332-12.809-43.39-24.035-55.913-4.349-4.853-8.972-8.108-14.129-9.954-19.897-7.119-48.215 13.228-68.466 31.547-11.885 10.706-23.573 22.859-34.876 34.611-2.794 2.906-5.685 5.91-8.518 8.832-10.792 11.124-21.963 24.116-33.79 37.873-21.513 25.023-43.757 50.897-67.172 69.639-13.546 10.844-26.278 18.172-38.926 22.405-24.917 8.339-45.617 6.103-64.275 2.445-11.504-2.257-22.909-6.051-33.9-11.275-9.008-4.332-17.498-9.578-25.237-15.591-22.379-17.363-39.816-44.224-51.82-79.836-4.809-14.261-8.921-30.715-12.942-51.781-7.68-39.947-13.926-68.344-20.254-92.075-12.585-47.198-25.057-76.55-41.7-98.144-11.143-14.457-24.357-26.129-39.278-34.696-10.351-5.942-22.517-9.503-39.446-11.539-3.473-.41-7.064-.738-10.678-.972-3.419-.21-6.933-.325-10.654-.449-13.74-.454-29.315-.969-44.943-6.668-8.238-3.003-16.374-6.719-24.243-10.311-8.942-4.082-18.188-8.304-27.364-11.353-9.2-3.057-18.416-4.481-27.386-4.228-32.081.899-63.4 15.312-83.777 38.553l-.142-.355c5.293-6.038 11.334-11.538 17.954-16.345A115.902 115.902 0 0 1-198.26 138.9c14.262-6.393 29.974-10.004 45.435-10.437 8.993-.251 18.23 1.175 27.452 4.238 9.184 3.052 18.436 7.276 27.381 11.362 7.866 3.591 15.998 7.305 24.229 10.306 15.601 5.688 31.159 6.203 44.883 6.657 3.724.122 7.24.24 10.66.449 3.618.235 7.213.564 10.689.972 16.955 2.041 29.142 5.607 39.515 11.563 14.94 8.579 28.174 20.268 39.332 34.745 16.667 21.623 29.152 51.005 41.749 98.244 6.329 23.74 12.579 52.146 20.26 92.104 4.018 21.05 8.126 37.486 12.929 51.732 11.989 35.562 29.398 62.385 51.745 79.722 7.728 6.005 16.209 11.242 25.205 15.57 10.977 5.218 22.368 9.007 33.857 11.262 18.63 3.652 39.294 5.887 64.153-2.432 12.601-4.217 25.289-11.521 38.788-22.326 23.364-18.703 45.585-44.549 67.075-69.545 11.835-13.765 23.013-26.768 33.822-37.909 2.832-2.918 5.722-5.923 8.517-8.829 11.311-11.762 23.008-23.923 34.913-34.647 13.215-11.956 25.502-20.841 36.519-26.408 12.905-6.522 23.76-8.283 32.261-5.246 5.187 1.856 9.832 5.129 14.202 10.004 11.263 12.567 17.785 34.655 24.091 56.018.289.978.577 1.956.866 2.929 6.072 20.517 10.41 43.794 12.894 69.183 5.2 52.522 2.784 116.382-7.181 189.807l-.368.137z"/><path d="M263.699 559.779c-.759-.237-1.507-.473-2.24-.71-10.905-3.5-21.759-8.568-32.254-15.065a152.825 152.825 0 0 1-23.826-18.403c-10.398-9.806-19.757-22.153-27.82-36.697-7.786-14.045-14.604-30.574-20.263-49.13-5.546-18.181-9.603-37.775-12.518-52.816-6.856-35.111-14.822-65.157-23.677-89.306-14.343-39.111-30.818-65.37-51.85-82.639-12.687-10.418-27.633-18.493-43.264-23.38-.242-.075-.483-.151-.726-.224-13.463-4.118-28.069-3.782-41.845-2.804-3.59.263-7.333.605-11.128 1.022-2.083.236-4.18.496-6.397.77-15.645 1.944-33.377 4.144-51.116-2.036-10.802-3.765-21.141-9.225-31.14-14.507-6.456-3.411-13.131-6.936-19.689-9.855-9.016-4.012-17.874-6.398-26.332-7.088-30.455-2.493-60.792 6.909-81.153 25.149l-.088-.466c10.443-9.355 23.1-16.324 37.619-20.717 13.866-4.193 29.023-5.771 43.827-4.559 8.48.694 17.363 3.083 26.398 7.107 6.565 2.921 13.243 6.45 19.702 9.861 9.992 5.28 20.325 10.738 31.113 14.496 17.692 6.166 35.395 3.967 51.013 2.028 2.22-.276 4.316-.536 6.4-.772 3.799-.416 7.546-.759 11.138-1.021 13.8-.979 28.43-1.315 41.926 2.81 15.922 4.869 31.154 13.044 44.058 23.641 10.854 8.914 20.326 20.002 28.954 33.895 8.309 13.383 15.823 29.364 22.97 48.858 8.863 24.167 16.835 54.237 23.694 89.371 2.912 15.031 6.966 34.611 12.507 52.771 11.483 37.654 27.638 66.487 48.012 85.704a152.566 152.566 0 0 0 23.793 18.379c10.482 6.489 21.319 11.551 32.211 15.044 17.043 5.466 37.322 10.673 62.488 3.214 12.737-3.775 25.511-11.124 39.052-22.466 23.781-19.92 45.976-48.09 67.443-75.334 11.042-14.013 21.471-27.25 31.426-38.419 3.189-3.578 6.444-7.273 9.591-10.848 10.636-12.078 21.631-24.564 32.925-35.752 12.95-12.885 25.166-22.802 36.308-29.474 12.918-7.735 24.035-10.847 33.044-9.248 5.561.986 10.624 3.337 15.48 7.189 12.983 10.295 21.33 31.023 29.429 53.165 7.063 19.306 12.286 42.724 15.104 67.724 3.159 27.7 3.764 59.228 1.798 93.706-1.752 30.717-5.545 63.945-11.275 98.764l-.41.138c12.304-74.776 15.492-139.466 9.469-192.274-2.814-24.964-8.028-48.347-15.081-67.62-8.086-22.104-16.416-42.792-29.35-53.051-4.83-3.83-9.865-6.167-15.391-7.148-16.555-2.934-41.062 10.762-69.009 38.569-11.273 11.168-22.259 23.644-32.884 35.709a2386.955 2386.955 0 0 1-9.595 10.853c-9.937 11.147-20.358 24.374-31.389 38.374-10.532 13.367-21.424 27.191-32.707 40.225-12.791 14.777-24.191 26.302-34.856 35.236-13.601 11.392-26.432 18.775-39.23 22.568-11.287 3.346-22.34 4.434-33.794 3.331-9.695-.944-18.785-3.4-26.595-5.842z"/><path d="M284.888 567.735c-6.9-2.156-13.221-4.941-18.84-7.516-10.332-4.734-20.632-11.078-30.61-18.854a170.57 170.57 0 0 1-22.414-21.218c-18.674-21.158-33.179-51.193-44.346-91.818-4.871-17.714-8.646-36.317-12.093-53.849-6.841-34.53-15.957-63.644-27.097-86.537-16.383-33.669-36.08-55.003-61.99-67.138-14.764-6.914-31.605-11.241-48.706-12.514-14.313-1.067-29.706 2.346-44.246 5.93a576.738 576.738 0 0 0-11.577 3.016c-1.01.277-2.032.561-3.066.846-16.998 4.714-36.232 10.047-55.4 4.055a44.741 44.741 0 0 1-.967-.313c-12.871-4.282-24.733-11.626-36.206-18.732-4.548-2.818-9.253-5.729-13.848-8.333-8.978-5.082-17.245-8.339-25.278-9.951-29.217-5.864-57.843-1.585-78.54 11.746l-.005-.583c10.231-6.59 22.883-11.134 36.584-13.14 13.477-1.973 28.074-1.514 42.215 1.325 8.056 1.617 16.344 4.881 25.342 9.974 4.601 2.605 9.305 5.52 13.856 8.335 11.462 7.098 23.314 14.436 36.16 18.71 19.418 6.464 38.967 1.04 56.211-3.742 1.033-.286 2.056-.57 3.068-.849a559.049 559.049 0 0 1 11.584-3.016c14.565-3.592 29.985-7.007 44.337-5.939 17.127 1.276 33.997 5.609 48.785 12.533 12.84 6.013 24.016 14.228 34.166 25.11 10.454 11.209 19.594 24.994 27.94 42.149 11.152 22.924 20.281 52.074 27.13 86.638 3.445 17.527 7.217 36.118 12.085 53.815 11.152 40.57 25.635 70.561 44.278 91.685a170.42 170.42 0 0 0 22.384 21.187c9.963 7.767 20.248 14.103 30.565 18.827 17.362 7.953 36.358 15.189 60.823 8.862 12.874-3.331 25.734-10.726 39.316-22.608 24.194-21.165 47.324-53.12 67.731-81.315 10.268-14.186 19.967-27.585 29.106-38.734 3.297-4.023 6.668-8.193 9.928-12.225 10.197-12.615 20.742-25.66 31.677-37.503 12.698-13.809 24.844-24.757 36.099-32.542 12.928-8.939 24.31-13.399 33.825-13.25 5.948.092 11.429 1.524 16.757 4.369 14.884 7.958 25.092 27.476 33.906 47.385 8.139 18.383 14.125 41.297 17.314 66.266 3.577 27.707 4.162 59.542 1.741 94.617-2.166 31.366-6.711 65.183-13.512 100.518l-.446.124c14.456-75.108 18.523-142.498 11.76-194.886-3.181-24.922-9.157-47.793-17.279-66.138-8.793-19.863-18.974-39.333-33.795-47.257-5.296-2.831-10.744-4.252-16.653-4.345-17.57-.274-42.271 15.916-69.556 45.589-10.913 11.817-21.446 24.849-31.633 37.452a2292.759 2292.759 0 0 1-9.933 12.231c-9.119 11.124-18.808 24.51-29.065 38.681-20.44 28.237-43.607 60.245-67.881 81.481-13.657 11.946-26.589 19.382-39.536 22.733-11.234 2.905-22.138 3.213-33.335.933-3.033-.603-5.974-1.387-8.82-2.277z"/><path d="m297.423 574.531-.295-.092c-9.732-3.09-18.417-8.15-26.48-13.068-9.784-5.967-19.527-13.588-28.962-22.646a194.573 194.573 0 0 1-21.003-24.031c-16.865-22.782-29.769-53.859-40.608-97.805-3.905-15.823-7.235-32.588-10.458-48.798-.402-2.029-.807-4.056-1.211-6.083-6.943-34.554-17.209-62.738-30.514-83.767-18.219-28.793-41.813-45.685-72.13-51.641-16.625-3.264-35.097-3.756-53.42-1.424-14.458 1.841-29.06 7.482-46.647 14.664a1440.752 1440.752 0 0 0-12.028 5.01l-.26.11c-8.961 3.807-19.118 8.12-29.486 10.573-11.907 2.818-22.247 2.732-31.614-.233-14.602-4.636-27.505-14.018-39.98-23.094-3.057-2.224-6.219-4.523-9.302-6.672-8.842-6.159-16.766-10.35-24.225-12.812-27.465-9.065-55.144-9.668-75.936-1.659l.096-.687c10.185-3.925 22.477-5.851 35.546-5.572 13.094.279 27.134 2.775 40.599 7.218 7.481 2.469 15.426 6.67 24.286 12.842 3.085 2.15 6.248 4.45 9.306 6.674 12.461 9.063 25.347 18.434 39.913 23.059l.196.062c20.875 6.525 42.94-2.846 60.683-10.381l.26-.11c4.64-1.955 8.462-3.546 12.032-5.011 17.617-7.194 32.245-12.845 46.748-14.691 18.354-2.338 36.857-1.844 53.51 1.426 14.835 2.915 27.716 8.255 39.379 16.33 12.567 8.7 23.334 20.288 32.913 35.428 13.33 21.069 23.615 49.298 30.569 83.909.404 2.027.807 4.056 1.209 6.085 3.221 16.205 6.551 32.964 10.452 48.775 10.824 43.891 23.708 74.924 40.545 97.669a194.259 194.259 0 0 0 20.974 23.997c9.421 9.046 19.151 16.655 28.919 22.611 17.496 10.675 35.187 19.815 59.156 14.505 13.008-2.882 25.954-10.321 39.577-22.746 24.609-22.444 47.635-57.006 67.952-87.501 9.511-14.276 18.496-27.763 26.855-38.843 3.216-4.263 6.505-8.685 9.686-12.962 9.945-13.372 20.228-27.197 31.008-39.894 12.461-14.737 24.537-26.72 35.89-35.617 12.942-10.139 24.583-15.942 34.601-17.245 6.211-.807 11.994-.339 17.664 1.434.123.038.246.077.37.118 17.557 5.669 29.736 25.208 38.386 41.597 9.214 17.461 15.966 39.871 19.526 64.807 3.996 27.715 4.562 59.856 1.683 95.532-2.584 32.014-7.882 66.423-15.752 102.274l-.482.107c11.709-53.344 23.65-130.908 14.052-197.492-3.551-24.88-10.288-47.237-19.479-64.657-8.624-16.343-20.765-35.825-38.238-41.466-5.751-1.864-11.611-2.361-17.915-1.541-18.562 2.415-43.458 21.098-70.104 52.608-10.755 12.667-21.027 26.477-30.961 39.835a2385.673 2385.673 0 0 1-9.691 12.968c-8.337 11.052-17.311 24.521-26.811 38.782-20.354 30.551-43.423 65.178-68.128 87.709-13.714 12.508-26.747 19.997-39.843 22.898-11.098 2.456-21.759 2.007-32.578-1.375z"/><path d="M306.833 581.216a60.197 60.197 0 0 1-6.292-2.366c-9.178-4.03-17.205-10.025-25.301-16.33-9.386-7.31-18.321-15.957-27.316-26.435a225.468 225.468 0 0 1-19.591-26.846c-14.986-24.016-26.357-56.027-36.869-103.792-2.611-11.862-5.015-24.198-7.34-36.13-1.266-6.494-2.573-13.21-3.903-19.785-7.089-34.818-18.505-62.067-33.929-80.993-20.38-25.008-47.288-36.834-82.266-36.151-18.48.361-38.583 3.702-58.134 9.662-15.705 4.788-31.345 13.517-47.904 22.759l-1.145.639c-2.589 1.45-5.21 2.923-7.861 4.412l-4.618 2.594c-9.69 5.47-20.037 11.101-30.636 14.611-12.306 4.075-22.987 4.633-32.654 1.707-16.093-4.877-29.675-16.444-42.805-27.635a803.177 803.177 0 0 0-5.704-4.833c-8.864-7.423-16.227-12.401-23.174-15.673-25.635-12.073-52.363-17.568-73.332-15.075l.204-.771c21.024-2.5 47.809 3.002 73.488 15.097 6.966 3.281 14.348 8.273 23.229 15.71a886.829 886.829 0 0 1 5.706 4.835c12.97 11.054 26.378 22.478 42.2 27.425.17.053.341.106.514.157 20.54 6.22 41.519-4.145 62.994-16.263 1.551-.871 3.09-1.735 4.617-2.595 2.653-1.491 5.271-2.961 7.863-4.414l1.145-.638c16.587-9.258 32.253-18.003 48.01-22.806 19.587-5.973 39.724-9.319 58.236-9.681 35.067-.684 62.047 11.174 82.482 36.25 15.462 18.976 26.905 46.286 34.01 81.18a2951.795 2951.795 0 0 1 3.903 19.789c2.323 11.928 4.727 24.262 7.337 36.115 10.499 47.71 21.854 79.677 36.812 103.653 5.896 9.461 12.477 18.481 19.565 26.805 8.981 10.464 17.903 19.098 27.275 26.396 14.225 11.079 31.929 24.87 57.491 20.144 13.141-2.429 26.171-9.914 39.835-22.884 25.029-23.757 47.913-61.021 68.103-93.895 8.77-14.282 17.055-27.772 24.67-38.736 2.967-4.272 6.004-8.701 8.941-12.985 9.851-14.367 20.038-29.222 30.842-43.001 12.243-15.671 24.248-28.69 35.683-38.694 12.956-11.336 24.858-18.48 35.373-21.235 6.749-1.768 13.066-2.184 19.312-1.27 8.365 1.222 16.143 5.142 23.782 11.974 6.463 5.785 12.706 13.58 19.087 23.834 10.29 16.537 17.807 38.444 21.738 63.35 4.416 27.722 4.961 60.172 1.624 96.446-3.004 32.664-9.057 67.664-17.991 104.031l-.515.083c18.861-76.777 24.665-147.84 16.342-200.096-3.92-24.839-11.416-46.683-21.677-63.172-13.748-22.092-27.306-33.431-42.677-35.679-6.204-.908-12.476-.495-19.178 1.26-25.017 6.552-52.231 36.043-70.653 59.626-10.778 13.745-20.952 28.583-30.791 42.932-2.939 4.286-5.977 8.717-8.945 12.991-7.592 10.932-15.867 24.407-24.627 38.671-20.233 32.946-43.166 70.287-68.308 94.152-13.772 13.072-26.907 20.617-40.154 23.066-8.978 1.659-17.583 1.173-26.123-1.497z"/><path d="M314.586 587.931c-14.309-4.474-25.33-15.141-34.759-24.267-8.871-8.584-17.267-18.471-25.669-30.224-6.613-9.324-12.73-19.302-18.18-29.658-16.348-31.018-25.585-71.093-33.13-109.78-1.54-7.898-3.039-16.012-4.487-23.857-2.011-10.895-4.091-22.16-6.33-33.089-7.258-35.192-19.821-61.51-37.338-78.223-22.663-21.617-52.888-28.378-92.403-20.666-20.346 3.97-42.078 11.146-62.848 20.751-16.018 7.407-31.53 18.231-47.952 29.691-1.164.811-2.33 1.627-3.502 2.441l-.636.444c-3.993 2.79-8.122 5.673-12.292 8.558-10.01 6.955-20.775 14.017-31.676 18.577-12.655 5.292-23.627 6.474-33.548 3.612-17.415-5.022-31.392-18.921-44.906-32.362-.948-.942-1.891-1.88-2.831-2.809-8.925-8.835-15.748-14.552-22.121-18.538-23.686-14.81-49.466-25.198-70.73-28.498l.311-.831c21.3 3.304 47.118 13.706 70.834 28.537 6.392 3.997 13.23 9.726 22.171 18.576.94.93 1.883 1.868 2.831 2.813 13.489 13.414 27.441 27.282 44.786 32.29 21.546 6.214 44.77-8.146 64.847-22.094 4.17-2.886 8.3-5.769 12.292-8.556l.636-.444 3.502-2.441c16.45-11.48 31.988-22.323 48.061-29.755 20.808-9.623 42.58-16.81 62.961-20.788 18.734-3.655 35.026-4.054 49.806-1.22 16.487 3.163 30.909 10.55 42.866 21.957 17.574 16.765 30.175 43.159 37.454 78.448 2.241 10.935 4.321 22.202 6.332 33.1 1.448 7.846 2.945 15.956 4.486 23.852 7.538 38.645 16.761 78.675 33.08 109.636 5.443 10.341 11.551 20.305 18.154 29.616 8.389 11.735 16.772 21.607 25.63 30.18 13.6 13.162 30.527 29.544 55.823 25.782 13.275-1.975 26.389-9.506 40.094-23.022 25.456-25.108 48.156-65.162 68.185-100.504 8.047-14.199 15.648-27.611 22.556-38.416a3324.95 3324.95 0 0 0 7.707-12.134c9.907-15.649 20.154-31.833 31.164-46.981 12.039-16.618 23.975-30.676 35.474-41.779 12.976-12.529 25.137-21.013 36.147-25.219 7.15-2.731 13.883-4.069 20.588-4.091 9.031-.03 17.817 2.813 26.114 8.447 7.265 4.935 14.412 12.191 21.238 21.569 11.365 15.613 19.648 37.015 23.953 61.892 4.836 27.731 5.363 60.486 1.567 97.361-3.429 33.313-10.236 68.907-20.231 105.789l-.546.059c21.182-78.152 27.798-150.139 18.631-202.699-4.291-24.795-12.546-46.127-23.872-61.689-14.683-20.17-30.095-29.951-47.116-29.894-6.656.022-13.341 1.35-20.44 4.06-26.196 10.007-53.18 41.765-71.206 66.647-10.983 15.108-21.215 31.27-31.109 46.899-2.533 4.002-5.154 8.14-7.712 12.141-6.885 10.77-14.476 24.163-22.513 38.345-9.635 17.002-20.555 36.272-31.99 53.964-13.102 20.27-25.017 35.595-36.427 46.85-6.599 6.508-13.213 11.735-19.661 15.535-6.935 4.087-13.934 6.679-20.804 7.7-7.862 1.171-14.918.409-21.316-1.591z"/><path d="M321.267 594.726c-4.731-1.479-9.345-3.825-13.896-7.053-8.965-6.356-16.391-15.127-22.946-22.862-8.26-9.752-16.343-21.197-24.021-34.015-6.127-10.3-11.77-21.224-16.768-32.474-14.36-32.26-21.806-71.514-29.391-115.764-.674-3.933-1.353-7.941-2.007-11.819-2.581-15.265-5.248-31.049-8.385-46.156-7.44-35.634-21.15-61.019-40.75-75.451-24.723-18.205-59.222-19.951-102.537-5.186-22.226 7.577-45.588 18.584-67.56 31.836-16.543 9.978-32.203 22.944-48.783 36.672a6097.462 6097.462 0 0 1-5.075 4.198 2276.684 2276.684 0 0 1-13.379 10.996c-9.654 7.884-21.093 16.731-32.715 22.542-13.011 6.508-24.278 8.315-34.443 5.523-18.609-5.107-32.758-21.461-46.442-37.276l-.522-.601c-6.701-7.741-13.891-15.694-21.068-21.401-21.878-17.396-46.071-32.287-68.12-41.931l.408-.867c22.072 9.654 46.287 24.558 68.184 41.97 7.198 5.724 14.401 13.689 21.113 21.441l.521.602c13.655 15.779 27.778 32.095 46.295 37.179 21.386 5.872 44.696-9.947 66.7-27.918 4.596-3.742 9.143-7.496 13.374-10.993 1.698-1.402 3.39-2.803 5.073-4.196 16.609-13.751 32.297-26.74 48.895-36.751 22.014-13.279 45.42-24.307 67.687-31.898 20.322-6.925 38.836-10.287 55.024-9.991 18.496.341 34.592 5.458 47.839 15.21 19.674 14.487 33.436 39.963 40.9 75.719 3.138 15.12 5.808 30.91 8.39 46.184.655 3.876 1.333 7.884 2.007 11.816 7.578 44.208 15.016 83.42 29.349 115.624 4.993 11.232 10.627 22.14 16.744 32.426 7.668 12.799 15.737 24.227 23.985 33.964 12.929 15.265 29.021 34.26 54.158 31.418 13.408-1.516 26.605-9.09 40.349-23.157 25.894-26.503 49.349-71.318 68.197-107.329 7.341-14.027 14.274-27.276 20.51-37.873 1.965-3.342 3.981-6.787 5.93-10.119 10.126-17.315 20.599-35.219 32.031-52.125 17.746-26.323 44.674-60.539 72.182-74.065 7.595-3.734 14.748-5.996 21.865-6.913 18.665-2.504 36.106 5.646 51.837 24.219 12.441 14.69 21.49 35.587 26.168 60.435 5.257 27.737 5.766 60.801 1.51 98.278-1.952 17.19-4.92 35.275-8.819 53.751-3.725 17.648-8.319 35.748-13.654 53.797l-.575.027c23.51-79.528 30.94-152.438 20.92-205.3-4.661-24.754-13.676-45.571-26.068-60.206-15.657-18.489-33.002-26.602-51.55-24.114-7.065.91-14.163 3.154-21.702 6.861-27.317 13.431-54.1 47.475-71.759 73.668-11.403 16.861-21.86 34.742-31.974 52.033-1.95 3.333-3.965 6.781-5.933 10.124-6.214 10.562-13.139 23.791-20.469 37.798-9.484 18.121-20.232 38.659-31.675 57.638-13.148 21.808-25.18 38.183-36.784 50.059-6.619 6.775-13.269 12.155-19.76 15.99-6.995 4.132-14.066 6.627-21.015 7.411-6.101.692-11.936.166-17.6-1.605z"/><path d="M327.168 601.545c-5.669-1.773-11.102-4.914-16.392-9.463-8.573-7.367-15.583-17.336-21.767-26.133-7.787-11.074-15.314-23.792-22.373-37.804-5.642-11.267-10.81-23.138-15.357-35.286-12.524-33.409-18.447-73.274-24.72-115.477l-.933-6.27c-2.925-19.607-5.948-39.883-9.967-59.003-7.628-36.116-22.484-60.57-44.155-72.682-27.22-15.216-65.129-11.753-112.675 10.289-23.782 11.025-49.449 26.27-72.273 42.924-17.234 12.574-33.255 27.777-50.218 43.874-2.008 1.905-4.022 3.817-6.046 5.731A2024.774 2024.774 0 0 1-83.54 355.24c-9.23 8.591-21.405 19.368-33.742 26.482-13.364 7.708-24.928 10.151-35.351 7.464-8.545-2.259-16.839-7.396-25.357-15.707-7.313-7.135-13.763-15.489-20.838-24.878-6.427-8.642-13.267-17.63-20.019-24.265-19.997-19.655-42.037-38.281-65.503-55.367l.494-.891c23.481 17.094 45.531 35.734 65.54 55.398 6.769 6.653 13.619 15.656 20.055 24.306 11.858 15.74 26.613 35.335 46.016 40.462 22.24 5.73 46.09-12.829 68.55-33.738 4.973-4.621 9.778-9.158 13.822-12.987 2.024-1.914 4.038-3.826 6.044-5.73 16.99-16.122 33.04-31.351 50.33-43.966 22.87-16.688 48.587-31.962 72.415-43.007 47.689-22.109 85.724-25.573 113.049-10.3 10.476 5.856 19.456 14.658 26.689 26.159 7.761 12.339 13.702 28.096 17.66 46.828 4.024 19.14 7.05 39.428 9.975 59.049.312 2.094.624 4.182.934 6.27 6.266 42.166 12.187 81.993 24.685 115.338 4.542 12.13 9.7 23.985 15.335 35.234 7.05 13.991 14.565 26.692 22.34 37.748 12.219 17.378 27.428 39.004 52.492 37.054 13.577-1.056 26.859-8.675 40.602-23.29 26.358-27.881 49.517-75.82 68.126-114.338 6.656-13.776 12.943-26.787 18.547-37.147 1.156-2.137 2.317-4.286 3.484-6.447 10.538-19.517 21.436-39.699 33.568-58.928 17.411-27.669 44.165-64.204 72.742-81.131 7.972-4.722 15.541-7.906 23.142-9.736 10.585-2.59 20.94-2.125 30.78 1.376 8.984 3.197 17.578 8.932 25.544 17.045 13.515 13.76 23.331 34.153 28.383 58.971 5.68 27.742 6.169 61.118 1.453 99.197-2.163 17.472-5.434 35.852-9.721 54.63-4.105 17.984-9.149 36.382-14.995 54.68l-.602-.007c25.474-79.737 33.932-155.512 23.209-207.897-5.033-24.711-14.805-45.018-28.262-58.723-16.592-16.899-35.951-23.238-55.987-18.337-7.542 1.816-15.053 4.976-22.964 9.662-28.38 16.81-54.99 53.159-72.315 80.69-12.099 19.177-22.981 39.331-33.506 58.822a5132.698 5132.698 0 0 1-3.485 6.45c-5.584 10.32-11.862 23.316-18.508 37.071-18.663 38.629-41.889 86.706-68.415 114.766-6.625 7.044-13.308 12.584-19.859 16.462-7.05 4.171-14.193 6.563-21.231 7.112-5.079.39-9.94-.136-14.638-1.604z"/><path d="M332.535 608.398c-6.46-2.02-12.527-5.968-18.342-11.906-8.227-8.402-14.796-19.56-20.591-29.403-7.324-12.438-14.297-26.434-20.727-41.592-5.157-12.219-9.848-25.039-13.946-38.099-10.093-32.152-14.65-69.099-19.475-108.217a4658.985 4658.985 0 0 0-2.437-19.516c-2.926-22.873-5.669-41.836-9.542-60.031-7.824-36.623-23.824-60.145-47.559-69.915-29.825-12.277-71.146-3.609-122.814 25.763-25.668 14.593-53.009 33.772-76.987 54.007-18.064 15.245-34.613 32.813-52.133 51.413-2.17 2.304-4.35 4.616-6.536 6.928a1982.62 1982.62 0 0 1-14.28 14.99c-22.054 22.9-47.742 45.544-71.029 39.832a38.046 38.046 0 0 1-2.152-.606c-17.72-5.539-30.592-23.341-43.273-42.689l-.789-1.214c-6.255-9.643-12.164-18.751-18.178-25.915-22.664-27.001-45.511-50.954-62.884-68.805l.571-.909c17.376 17.857 40.229 41.815 62.901 68.826 6.031 7.184 11.946 16.303 18.21 25.957l.788 1.214c13.145 20.056 26.493 38.454 45.213 43.141 23.029 5.647 48.51-16.825 70.4-39.553a1990.526 1990.526 0 0 0 14.27-14.979c2.188-2.315 4.364-4.625 6.534-6.929 17.548-18.628 34.124-36.225 52.245-51.518 24.028-20.279 51.424-39.497 77.143-54.119 23.87-13.57 45.896-22.834 65.467-27.538 22.455-5.397 41.891-4.819 57.768 1.715 23.858 9.819 39.941 33.458 47.801 70.252 3.878 18.223 6.623 37.205 9.554 60.098.832 6.509 1.648 13.123 2.438 19.519 4.82 39.079 9.373 75.991 19.448 108.078 4.09 13.045 8.774 25.844 13.924 38.044 6.42 15.139 13.382 29.113 20.696 41.533 11.48 19.499 25.768 43.764 50.829 42.685 13.699-.59 27.063-8.252 40.854-23.424 26.822-29.382 49.653-80.528 67.998-121.624 5.985-13.409 11.64-26.076 16.642-36.142l.115-.23c11.203-22.541 22.789-45.848 36.026-68.28 11.528-19.571 23.248-36.743 34.837-51.043 13.067-16.121 26.008-28.62 38.466-37.153 8.335-5.71 16.323-9.819 24.418-12.559 21.904-7.479 42.933-3.117 60.812 12.619 7.196 6.333 13.476 14.482 18.67 24.219 5.223 9.794 9.237 20.998 11.932 33.298 6.103 27.749 6.573 61.433 1.394 100.117-4.653 34.77-13.976 73.179-26.958 111.071l-.627-.044c27.787-81.101 37.08-157.822 25.495-210.492-5.404-24.663-15.935-44.457-30.456-57.235-17.778-15.646-38.671-19.989-60.422-12.562-8.033 2.721-15.956 6.797-24.227 12.46-23.26 15.933-48.459 46.263-72.872 87.712-13.203 22.373-24.772 45.648-35.96 68.157l-.114.23c-4.985 10.029-10.632 22.677-16.609 36.067-18.403 41.222-41.302 92.522-68.312 122.111-6.65 7.316-13.368 13.01-19.964 16.923-7.114 4.221-14.326 6.514-21.442 6.823-4.237.18-8.303-.336-12.222-1.561z"/><path d="M-177.485 455.47c-7.924-2.477-15.404-7.849-22.796-16.353-7.345-8.45-13.696-18.932-19.467-28.998-1.041-1.83-2.072-3.654-3.096-5.465-5.095-9.018-9.907-17.535-14.819-24.533-19.586-27.897-38.704-53.444-57.196-78.146l-3.063-4.094.638-.92 3.063 4.094c18.491 24.708 37.613 50.256 57.203 78.159 4.925 7.016 9.744 15.543 14.845 24.573a1519.26 1519.26 0 0 0 3.094 5.462c11.846 20.663 25.032 41.222 44.414 45.816 23.86 5.566 51.147-21.323 72.251-45.368a2078.226 2078.226 0 0 0 14.719-16.974c2.214-2.574 4.421-5.149 6.622-7.717 18.25-21.29 35.488-41.4 54.562-59.479 25.176-23.859 54.25-47.026 81.869-65.228 25.623-16.888 49.413-29.122 70.712-36.361 24.431-8.305 45.528-9.982 62.707-4.987 25.92 7.353 43.167 30.072 51.255 67.517 4.474 20.777 7.126 42.57 9.132 61.148 1.091 10.111 2.089 20.436 3.055 30.422 3.416 35.353 6.951 71.906 15.097 103.165 3.638 13.966 7.849 27.713 12.515 40.855 5.786 16.235 12.195 31.482 19.051 45.317 10.717 21.623 24.054 48.534 49.165 48.313 13.822-.121 27.268-7.827 41.107-23.557 27.304-30.944 49.758-85.4 67.799-129.157 5.336-12.939 10.375-25.163 14.809-34.886 9.995-21.92 21.785-47.34 35.232-71.644 11.382-20.597 23.029-38.81 34.619-54.13 13.111-17.33 26.313-31.168 39.242-41.13 8.566-6.602 17.211-11.776 25.694-15.382 12.115-5.171 24.036-7.078 35.433-5.663 10.672 1.324 20.72 5.523 29.865 12.478 7.712 5.867 14.45 13.657 20.027 23.157 5.611 9.559 9.916 20.629 12.793 32.9 3.324 14.134 5.083 30.147 5.227 47.596.138 16.533-1.171 34.513-3.888 53.442-5.084 35.412-15.183 74.431-29.204 112.834l-.651-.085c30.108-82.466 40.234-160.132 27.781-213.083-5.693-24.275-17.286-44.077-32.647-55.762-18.993-14.446-41.42-16.794-64.857-6.791-8.414 3.576-16.99 8.711-25.489 15.26-24.36 18.771-49.065 50.643-73.429 94.736-13.412 24.238-25.18 49.614-35.158 71.499-4.418 9.688-9.45 21.893-14.778 34.816-8.901 21.586-18.99 46.055-30.361 69.203-13.195 26.86-25.551 46.651-37.776 60.505-6.672 7.585-13.425 13.435-20.069 17.387-7.176 4.27-14.462 6.466-21.653 6.528-3.629.033-7.013-.496-10.178-1.485-18.953-5.925-30.111-28.441-39.337-47.058-6.866-13.856-13.285-29.125-19.078-45.383-4.673-13.16-8.89-26.927-12.533-40.914-8.163-31.322-11.701-67.914-15.122-103.299-.965-9.984-1.963-20.307-3.053-30.411-2.002-18.556-4.65-40.318-9.117-61.057-8.043-37.245-25.189-59.83-50.961-67.148-40.369-11.737-94.584 15.945-132.957 41.238-27.562 18.166-56.577 41.282-81.7 65.094-19.017 18.025-36.23 38.103-54.451 59.359-2.201 2.569-4.41 5.143-6.625 7.72a2119.58 2119.58 0 0 1-14.729 16.986c-8.859 10.094-22.211 24.646-35.817 34.428-6.607 4.75-12.92 8.133-18.764 10.057-6.516 2.145-12.703 2.561-18.383 1.234a32.206 32.206 0 0 1-2.395-.65z"/><path d="M-188.962 488.891c-7.933-2.48-15.307-8.052-22.468-16.958-7.415-9.219-13.655-20.872-18.78-31.058-1.572-3.133-3.125-6.299-4.628-9.36-4.2-8.557-8.167-16.642-12.235-23.502-14.609-24.637-29.253-48.809-43.415-72.187-4.685-7.733-9.528-15.728-14.218-23.489l.701-.931c4.69 7.76 9.534 15.755 14.218 23.488 14.163 23.378 28.808 47.554 43.417 72.193 4.079 6.879 8.052 14.972 12.256 23.54 1.501 3.061 3.055 6.224 4.625 9.357 10.631 21.118 23.644 44.023 43.61 48.491 24.533 5.442 52.488-24.495 74.104-51.181a2278.96 2278.96 0 0 0 15.167-18.966c2.132-2.688 4.257-5.376 6.377-8.057 19.07-24.118 37.08-46.897 57.213-67.885 26.187-27.297 56.94-54.408 86.594-76.338 41.225-30.377 99.602-64.9 143.6-56.869 28.018 5.021 46.427 26.816 54.709 64.781 3.719 17.065 6.404 36.247 8.709 62.202 1.165 13.116 2.108 26.628 3.021 39.692 2.375 33.99 4.828 69.137 11.398 99.887 3.181 14.9 6.917 29.59 11.104 43.665 5.076 17.028 10.933 33.549 17.406 49.103 9.991 23.781 22.424 53.381 47.501 53.942 13.717.381 27.632-7.591 41.358-23.689 27.81-32.571 50.77-92.904 67.534-136.956 4.704-12.363 9.148-24.04 13.042-33.363 8.651-20.72 20.371-47.943 34.322-74.777 24.16-46.504 49.199-80.933 74.42-102.325 8.859-7.544 17.934-13.668 26.97-18.205 12.859-6.464 25.558-9.547 37.745-9.158 11.482.367 22.26 3.787 32.039 10.167 8.228 5.438 15.418 12.88 21.374 22.116 6.013 9.328 10.611 20.255 13.668 32.479 3.537 14.126 5.396 30.224 5.523 47.849.121 16.702-1.307 34.907-4.244 54.112-5.516 36.055-16.391 75.683-31.447 114.599l-.673-.128c32.439-83.836 43.397-162.448 30.068-215.676-6.039-24.146-18.411-43.424-34.839-54.28-20.311-13.248-44.271-13.6-69.292-1.019-8.963 4.498-17.963 10.573-26.752 18.058-25.054 21.249-49.945 55.485-73.986 101.76-13.914 26.761-25.608 53.931-34.244 74.611-3.879 9.29-8.317 20.952-13.016 33.299-8.666 22.771-18.489 48.582-29.809 73.24-13.183 28.712-25.64 49.755-38.086 64.331-6.706 7.865-13.494 13.877-20.181 17.869-7.249 4.329-14.604 6.421-21.861 6.221-11.28-.254-20.972-6.224-29.63-18.253-7.526-10.458-13.22-24.009-18.243-35.962-6.483-15.576-12.347-32.12-17.431-49.173-4.193-14.095-7.934-28.806-11.121-43.726-6.584-30.813-9.041-65.998-11.418-100.023-.911-13.06-1.855-26.565-3.019-39.67-2.301-25.909-4.983-45.055-8.693-62.08-8.23-37.747-26.519-59.409-54.359-64.398-43.81-7.994-101.998 26.427-143.1 56.712C24.05 288.898-6.64 315.952-32.77 343.191c-20.078 20.929-38.062 43.676-57.102 67.758-2.122 2.683-4.247 5.371-6.378 8.06a2274.54 2274.54 0 0 1-15.18 18.982c-21.807 26.925-50.028 57.124-74.898 51.606a33.543 33.543 0 0 1-2.633-.706z"/><path d="M-200.39 522.331c-21.677-6.776-34.513-36.944-45.892-63.689-3.497-8.218-6.799-15.981-10.205-22.737l-55.004-109.111.758-.94 55.005 109.111c3.415 6.772 6.721 14.544 10.223 22.774 11.818 27.779 25.215 59.265 48.409 64.149 25.183 5.308 53.822-27.672 75.957-56.993 7.24-9.59 14.463-19.393 21.45-28.873 19.108-25.926 38.866-52.737 60.161-76.78 16.91-19.091 36.128-38.648 55.576-56.554 21.335-19.645 42.652-37.124 63.354-51.951 22.825-16.345 44.348-29.041 63.967-37.733 21.7-9.613 41.015-14.28 57.41-13.873 32.844.816 54.027 21.78 62.957 62.311 7.422 33.681 9.137 72.996 10.796 111.018 1.444 33.095 2.937 67.314 8.177 97.806 6.053 35.216 14.618 68.647 25.458 99.361 9.132 25.878 20.498 58.088 45.839 59.569 21.402 1.251 42.216-17.666 63.631-57.838 18.216-34.169 33.166-76.784 45.179-111.024 4.093-11.669 7.96-22.691 11.341-31.552 18.636-48.85 37.058-88.227 56.314-120.378 12.015-20.059 24.473-37.394 37.028-51.522 14.025-15.781 28.592-28.039 43.295-36.431 12.72-7.26 25.35-11.473 37.54-12.521 11.604-.998 22.565.878 32.576 5.576 19.69 9.239 34.398 28.872 41.414 55.28 3.751 14.116 5.71 30.301 5.822 48.101.105 16.871-1.441 35.301-4.6 54.782-5.951 36.699-17.602 76.937-33.693 116.361l-.694-.171c34.266-83.956 46.361-165.551 32.352-218.267-14.875-55.981-61.456-76.192-110.759-48.051-48.84 27.877-93.288 95.706-135.885 207.365-3.37 8.832-7.231 19.84-11.32 31.495-12.039 34.314-27.02 77.02-45.319 111.344-9.968 18.696-20.034 33.078-29.92 42.75-5.559 5.437-11.205 9.536-16.781 12.179-5.935 2.813-11.965 4.062-17.926 3.714a29.363 29.363 0 0 1-7.07-1.28c-8.299-2.595-15.577-8.993-22.098-19.384-7.347-11.707-12.733-26.969-17.062-39.232-10.853-30.757-19.431-64.232-25.493-99.5-5.253-30.556-6.746-64.816-8.192-97.946-1.656-37.973-3.369-77.24-10.773-110.835-8.872-40.255-29.908-61.08-62.526-61.89-65.979-1.64-170.457 81.644-239.61 159.718-21.237 23.977-40.968 50.75-60.05 76.642-6.991 9.485-14.219 19.294-21.465 28.892-14.696 19.467-26.735 32.932-37.885 42.371-6.959 5.89-13.603 10.171-19.747 12.725-6.831 2.838-13.29 3.647-19.199 2.403a31.853 31.853 0 0 1-2.821-.741z"/></g></svg>