<svg width="106" height="30" fill="none" xmlns="http://www.w3.org/2000/svg"><path d="M99.73 15.948c-.145.025-.291.041-.434.078-.092.022-.132-.044-.194-.08-.02-.011-.042-.036-.061-.033-.144.025-.288.052-.432.08-.044.059-.072.137-.14.166-.066.027-.143.027-.217.041-.097.017-.194.034-.29.049a.123.123 0 0 0-.105.09c-.003.01.03.033.047.046.059.046.116.097.18.132.062.034.139-.021.205.021.148.096.15.094.263.076.096-.017.194-.035.29-.047.02-.003.041.02.062.032.062.033.101.11.192.08.07-.022.146-.027.218-.039.06.044.116.094.18.129.06.033.078.059.046.103-.03.041-.07.058-.125.06-.048.002-.097.016-.145.023l-.072.013c-.093.016-.093.016-.262-.08-.066-.039-.14.014-.204-.022-.042-.024-.08-.06-.12-.087a.112.112 0 0 0-.068-.009c-.073.011-.147.019-.217.038-.05.014-.08.056-.073.099.001.017.036.04.057.042.047.003.097-.018.142-.007.044.01.09.04.122.074.066.07.141.008.204.026.066.02.12.08.184.117.016.009.047-.006.072-.01.072-.012.144-.02.216-.031.06.044.124.083.179.133.098.091.204.126.332.082.072-.024.142-.015.2.044.058.06.126.055.201.043.069-.013.139-.046.21-.004.152.095.154.1.334.063.055-.01.096-.014.137.021.038.032.079.06.119.09l.217-.034c.093-.017.144.005.166.09.013.051.019.098.052.133.038.043.079.041.135.029.053-.01.091-.027.113-.082a.227.227 0 0 1 .042-.062c.014-.014.034-.035.046-.032.022.006.051.023.059.042.072.184.072.185.145.239.081.059.165.112.238.178.066.06.132.034.204.034.054 0 .09.04.085.079-.003.023-.023.056-.041.059-.144.03-.289.056-.435.077-.017.003-.039-.024-.06-.038-.041-.027-.078-.07-.122-.079-.044-.009-.095.014-.144.022-.048.007-.099.027-.143.015-.045-.012-.08-.056-.121-.085-.019-.014-.045-.034-.062-.029-.107.037-.186-.014-.262-.08a.092.092 0 0 0-.065-.02c-.17.026-.339.056-.51.085-.069.012-.124-.041-.139-.13-.008-.05-.022-.1-.022-.15 0-.092-.081-.142-.14-.131-.097.015-.195.027-.29.05a.195.195 0 0 1-.197-.055c-.062-.062-.132-.05-.203-.033-.053.012-.067.062-.064.188.002.102-.023.133-.118.15-.12.021-.242.043-.364.06-.02.002-.041-.023-.06-.037-.041-.027-.078-.071-.122-.08-.044-.011-.096.012-.144.02-.049.008-.1.03-.144.019-.044-.01-.08-.056-.12-.085-.02-.014-.043-.033-.062-.03-.097.012-.194.03-.291.047-.109.018-.109.018-.263-.076-.07-.043-.14-.01-.21.003-.073.012-.142.018-.2-.043-.038-.039-.08-.063-.126-.056-.122.018-.242.041-.364.06a.09.09 0 0 1-.065-.019c-.078-.063-.154-.114-.263-.082-.093.028-.195.03-.289.055-.051.014-.075.062-.064.1.005.02.036.043.057.043.047.001.098-.022.142-.013.091.019.137.146.256.111.07-.021.144-.029.217-.035.02-.001.04.028.06.043.059.04.11.094.196.067.07-.022.145-.028.217-.04.115-.02.115-.018.263.074.07.044.14.01.21-.001.051-.008.1-.023.14-.002.064.032.11.105.187.1.074-.004.146-.025.22-.033.045-.005.087.02.124.06.038.042.08.06.13.05.071-.011.145-.027.218-.034.02-.002.044.012.063.024.041.027.08.06.12.088.073-.009.146-.012.217-.03a.15.15 0 0 1 .136.023c.056.04.101.113.192.078.046-.016.099-.012.144-.027.056-.02.094-.012.134.034.075.086.169.087.266.054.105-.036.185.006.264.073.084.07.084.068.148.237.02.048.074.07.119.062.077-.016.143-.008.199.05.058.062.129.054.201.038.095-.023.191-.043.269.045a.125.125 0 0 0 .13.043c.146-.028.292-.044.435-.078.087-.021.136.028.195.069.08.056.166.106.166.226 0 .02.021.042.038.057.039.032.08.06.119.09.059.045.116.083.197.059.071-.02.145-.026.217-.04.072-.013.138-.02.203.037.075.065.154.127.239.176.061.035.14-.025.205.023.039.028.077.062.12.086.018.01.046.003.069 0 .049-.006.098-.01.145-.026.055-.017.096-.013.137.021.038.032.076.076.12.085.067.014.14-.047.206.023a.271.271 0 0 0 .12.079c.044.01.096-.012.143-.01.02 0 .045.024.057.043.007.01-.003.04-.013.055-.013.018-.032.042-.051.045-.146.028-.291.05-.437.076-.086.015-.086.015-.261-.08-.041-.023-.087-.018-.138-.008-.069.014-.14.04-.212.012-.094-.103-.21-.112-.333-.072-.051.016-.098.016-.136-.013-.081-.057-.166-.11-.238-.178-.056-.054-.083-.058-.106.015-.007.022-.015.047-.013.068.008.076.025.15.033.226.003.021-.008.045-.016.068-.023.064-.054.06-.105.006-.052-.053-.113-.088-.196-.064-.07.022-.147.019-.217.041-.109.034-.185-.015-.263-.08a.09.09 0 0 0-.065-.018c-.218.035-.436.074-.655.11-.047.007-.089-.016-.126-.057-.038-.041-.081-.062-.128-.055-.193.032-.387.061-.581.1a.203.203 0 0 1-.197-.056.151.151 0 0 0-.13-.047c-.056.005-.096.02-.124.064-.026.043-.007.068.051.102.064.036.122.083.183.125.048-.005.096-.018.143-.016.021 0 .04.027.061.042.058.044.113.088.196.064.071-.021.146-.026.218-.04.1-.016.1-.016.261.08.041.024.085.022.138.009.046-.011.093.01.125.056.013.018.009.048-.019.148 0 .075.031.041.041-.007.016-.07-.015-.093-.073-.055-.041.027-.062.067-.052.099.006.016.034.038.084-.037.129-.09.228-.101.322-.126.055-.013.091-.007.135.032.053.047.105.097.192.073.094-.027.194-.03.289-.053.088-.021.134.045.19.085.067.047.142-.006.204.021.065.027.11.094.185.106.109-.04.178.035.26.085.064.038.141.005.21-.012a.196.196 0 0 1 .197.053c.061.062.13.049.201.035.164-.03.17-.035.266.049.069.06.135.033.204.025.06.041.119.085.182.122.016.009.047-.006.072-.01l.217-.037c.049-.008.1-.03.144-.021.044.01.081.054.121.083.039.029.08.058.118.088.059.045.115.083.197.06.071-.02.144-.025.218-.039.092-.017.089-.012.261.079.093.05.188-.01.282-.017a.14.14 0 0 1 .125.058c.013.018.009.049.013.074-.242.041-.486.076-.725.126-.093.02-.141-.035-.191-.08-.083-.073-.191.033-.269-.06-.047-.057-.115-.089-.195-.062-.047.016-.097.014-.146.028-.123.033-.236.035-.335-.07-.033-.036-.082-.056-.117-.091-.041-.038-.081-.06-.129-.052-.219.037-.436.073-.654.113-.019.003-.038.025-.054.042-.041.043-.028.076.038.103.022.01.04.029.06.044.04.029.077.075.121.085.044.01.095-.01.144-.018.048-.008.099-.03.143-.021.045.01.081.054.122.082.019.013.043.036.062.035.097-.01.192-.026.289-.04.061.041.112.1.184.114.045.009.094-.008.141-.005.02.002.047.025.057.044.006.012-.013.043-.028.058-.056.058-.132.047-.201.065-.075.02-.142.014-.2-.045-.038-.04-.08-.061-.127-.054-.122.02-.243.043-.365.06-.02.003-.045-.01-.064-.022-.154-.092-.154-.095-.263-.075-.16.028-.16.028-.267-.052-.021-.015-.043-.044-.061-.042-.17.024-.339.048-.508.083-.056.01-.094.01-.135-.029-.035-.033-.076-.071-.12-.08-.046-.01-.096.013-.144.021-.049.008-.1.027-.143.015-.044-.012-.082-.054-.12-.085-.04-.032-.082-.03-.137-.018-.167.035-.168.03-.334-.064-.019-.01-.044-.022-.065-.02-.122.019-.242.042-.364.06a.127.127 0 0 1-.125-.056c-.013-.018-.009-.049-.018-.108-.01-.014.002.01.005.033.022-.003.048 0 .064-.012.041-.029.062-.067.052-.098-.006-.017-.034-.038-.052-.038-.032 0-.06.033-.069.115-.092.05-.191.06-.286.085-.056.015-.091.008-.135-.032-.053-.049-.107-.096-.194-.071-.094.027-.194.032-.29.053-.112.024-.16-.112-.255-.11-.097.004-.194.03-.29.048-.086.015-.086.015-.262-.084-.065-.036-.14.017-.204-.021-.043-.024-.08-.06-.12-.086-.018-.011-.046-.011-.068-.008-.122.018-.245.03-.363.064-.133.04-.235-.003-.33-.093-.12.017-.242.026-.361.055-.087.021-.137-.029-.196-.07-.02-.014-.038-.036-.06-.043-.022-.006-.049.007-.072.011-.097.017-.197.024-.29.052-.117.035-.16-.09-.25-.105-.06.074-.093.176-.212.184-.097.006-.194.03-.29.047-.05.007-.097.016-.146.024-.078.014-.114.073-.098.164l.023.15c.015.09-.022.165-.084.176-.17.029-.339.059-.51.085-.045.007-.089-.018-.126-.06-.038-.04-.08-.059-.127-.051-.17.029-.34.06-.51.085-.019.003-.044-.012-.063-.024-.041-.028-.08-.06-.12-.088-.097.013-.193.022-.288.04-.154.028-.154.03-.268-.054-.02-.015-.04-.044-.06-.042-.073.006-.145.02-.219.035-.215.039-.215.039-.278-.007-.058-.042-.11-.094-.196-.07-.094.028-.194.037-.29.052-.073.01-.144.023-.216.026-.02.002-.04-.027-.06-.043-.06-.047-.117-.084-.198-.059-.046.015-.096.019-.145.026-.126.021-.126.021-.333-.07-.02-.009-.046-.02-.066-.015-.17.027-.34.058-.51.084a.147.147 0 0 1-.066-.014c-.232-.088-.232-.088-.479-.046-.094.016-.097.022-.195-.059-.044-.035-.08-.051-.132-.04-.194.036-.39.06-.582.102-.086.019-.136-.027-.195-.068-.02-.013-.043-.044-.06-.042-.194.029-.388.063-.582.092-.017.003-.04-.027-.06-.04-.04-.028-.078-.069-.122-.078-.045-.01-.095.014-.145.021-.122.02-.122.018-.263-.071-.02-.012-.044-.029-.063-.026-.194.03-.39.056-.582.1-.11.025-.185-.02-.263-.083a.089.089 0 0 0-.064-.017c-.22.035-.436.075-.655.11-.046.007-.09-.019-.127-.058-.058-.063-.127-.055-.2-.041-.17.032-.171.03-.271-.043-.02-.015-.038-.035-.06-.042-.02-.008-.047-.003-.07 0l-.29.048c-.097.017-.195.026-.29.052-.118.032-.174-.067-.256-.112-.12.02-.244.032-.363.063-.091.025-.134-.042-.194-.077-.02-.012-.042-.038-.062-.035-.218.034-.437.07-.654.11-.053.01-.089-.002-.133-.038-.098-.082-.102-.08-.267-.05-.072.015-.14.027-.203-.036-.054-.056-.12-.07-.198-.051-.095.023-.194.035-.29.05-.097.017-.194.04-.291.047-.078.008-.125-.064-.187-.1a.114.114 0 0 0-.067-.01c-.097.015-.197.025-.291.05-.115.033-.178-.05-.259-.1-.017-.01-.047-.004-.069 0l-.51.087-.181-.121-.291.047c-.073.012-.148.017-.218.04-.089.03-.133-.042-.193-.076-.02-.013-.043-.038-.062-.035a4.938 4.938 0 0 0-.364.06c-.115.026-.16-.11-.254-.109a1.122 1.122 0 0 0-.291.049c-.109.032-.185-.017-.263-.082a.09.09 0 0 0-.065-.018c-.121.018-.242.04-.364.059a.13.13 0 0 1-.066-.014c-.232-.09-.232-.091-.333-.073-.072.012-.145.027-.219.035-.02.003-.045-.01-.065-.023-.152-.092-.152-.094-.262-.075l-.291.05c-.06-.041-.122-.08-.182-.122-.12.02-.244.035-.363.062-.056.013-.093.008-.135-.03-.053-.045-.106-.099-.194-.073-.094.028-.194.03-.29.053-.114.028-.16-.11-.253-.109a1.122 1.122 0 0 0-.291.049c-.109.032-.185-.017-.263-.082a.09.09 0 0 0-.065-.018c-.267.044-.533.088-.8.135-.164.028-.164.03-.477-.053a.173.173 0 0 0-.068-.01c-.097.014-.197.025-.29.05-.115.032-.178-.05-.259-.1-.018-.01-.046-.004-.069-.001-.073.01-.145.024-.219.036l-.29.05-.183-.12c-.12.02-.243.03-.362.063-.091.024-.134-.04-.194-.076-.02-.012-.043-.038-.062-.037-.219.034-.438.069-.655.111-.09.018-.13-.05-.19-.085-.021-.01-.045-.03-.064-.027-.145.021-.29.047-.436.073-.082.015-.082.015-.261-.08-.021-.01-.044-.02-.065-.017-.461.075-.92.156-1.382.232-.047.007-.09-.015-.126-.056-.038-.041-.081-.063-.128-.055-.194.032-.39.06-.582.1a.203.203 0 0 1-.196-.056c-.042-.04-.08-.055-.131-.046-.097.019-.194.034-.29.05l-.292.05c-.096.017-.195.026-.29.052-.118.032-.175-.062-.256-.11l-.435.07c-.193.033-.387.067-.581.098-.018.003-.04-.024-.06-.038-.06-.038-.105-.091-.194-.075-.435.08-.873.15-1.309.228-.09.017-.13-.049-.192-.083-.02-.011-.044-.032-.063-.03-.243.039-.485.081-.727.122-.099.017-.099.017-.263-.077-.019-.01-.044-.024-.065-.022-.315.052-.63.107-.945.16-.047.007-.09-.014-.128-.055-.037-.04-.08-.064-.126-.056-.291.049-.583.096-.873.149-.078.015-.142.001-.198-.053-.04-.04-.08-.056-.13-.047-.435.074-.871.145-1.308.224-.083.015-.142-.014-.195-.064-.042-.04-.08-.047-.132-.04-.056.007-.09.024-.12.07-.04.058-.065.133-.16.137a1.375 1.375 0 0 0-.29.049c-.09.026-.133-.043-.19-.084-.043-.029-.083-.033-.137-.02-.05.013-.081.038-.11.087-.065.103-.071.103-.15.038-.043-.035-.081-.062-.128-.056-.194.03-.388.064-.582.099-.111.02-.113.022-.196-.054-.041-.038-.081-.056-.13-.047-.533.091-1.066.18-1.599.275-.082.015-.138-.017-.197-.062-.019-.016-.038-.037-.06-.043-.022-.006-.047 0-.07.003-.388.066-.777.128-1.163.2-.089.017-.136-.031-.196-.07-.02-.015-.038-.036-.06-.042-.022-.004-.048.006-.072.01-.388.066-.777.128-1.163.201-.092.017-.132-.047-.192-.08-.02-.012-.043-.035-.062-.032-.122.017-.242.04-.364.059-.291.05-.582.097-.873.149-.111.02-.16-.116-.254-.11-.121.008-.242.038-.364.06-.097.016-.194.031-.29.05-.096.016-.096.016-.334-.072-.02-.007-.045-.018-.066-.015-.34.056-.68.112-1.018.173-.077.014-.142.006-.198-.05-.04-.04-.08-.06-.13-.05-.509.086-1.017.173-1.526.258-.02.003-.044-.012-.064-.025-.04-.027-.08-.059-.12-.087-.03.035-.068.066-.087.106-.026.053-.061.068-.117.077-.056.01-.091.006-.135-.033-.053-.049-.107-.087-.194-.072-.533.096-1.066.182-1.6.277-.087.015-.128-.052-.19-.087-.02-.01-.044-.027-.063-.024-.22.035-.436.073-.655.109-.607.103-1.213.202-1.818.31-.11.02-.185-.017-.263-.082a.09.09 0 0 0-.065-.019l-2.545.431c-.045.008-.09-.017-.126-.056-.038-.041-.08-.06-.128-.053-.388.065-.775.13-1.163.197-.097.017-.098.018-.198-.055-.02-.015-.043-.044-.059-.04-.034.007-.066.045-.09.096-.023.055-.06.07-.114.08-.056.012-.093.007-.135-.03-.055-.045-.104-.089-.193-.074-1.114.194-2.229.38-3.343.574-.09.015-.131-.049-.193-.084-.02-.01-.04-.026-.063-.029-.023-.003-.048.006-.072.01l-5.454.926c-.109.018-.107.018-.226.158-.015.017-.034.04-.054.042-.557.097-1.115.191-1.673.285-.242.041-.485.084-.727.123-.087.014-.087.014-.294.178-.017.014-.038.032-.059.035-.969.165-1.938.33-2.909.493-.076.012-.138.04-.173.112-.025.051-.057.082-.106.09-.678.116-1.357.233-2.037.345a.233.233 0 0 0-.168.12c-.014.021-.025.046-.044.06-.018.014-.044.019-.066.023-.582.099-1.164.2-1.747.295-.086.013-.122.07-.164.129-.015.02-.025.047-.044.06-.02.012-.047.012-.07.015l-1.455.248c-.093-.008-.114.08-.16.133-.016.018-.027.043-.046.055-.021.012-.048.01-.072.013-.388.066-.776.135-1.165.196-.09.014-.107.091-.156.144-.016.017-.032.043-.051.047-.242.044-.485.085-.727.125-.08.013-.08.012-.223.162-.016.016-.035.035-.056.04-.363.063-.727.124-1.091.186-.047.007-.08.044-.103.095-.024.052-.057.085-.104.093-.291.05-.582.102-.873.147a.21.21 0 0 0-.168.118c-.027.052-.06.078-.11.087-.291.048-.582.101-.874.144-.086.012-.13.064-.165.127-.028.052-.06.07-.114.08-.533.087-1.068.175-1.6.272-.09.017-.135-.036-.193-.074-.084-.053-.162-.11-.162-.23 0-.017-.025-.039-.043-.054-.13-.114-.13-.114-.15-.235-.013-.074-.026-.15-.036-.226-.02-.124-.066-.156-.201-.133-.049.007-.097.018-.146.024-.072.01-.126-.04-.14-.13-.006-.05-.015-.1-.023-.15.074-.013.072-.014.202-.198.054-.077.054-.077-.05-.155-.04-.028-.078-.06-.12-.088a.102.102 0 0 0-.065-.016c-.122.018-.243.04-.363.06-.194.034-.194.034-.39-.12-.017-.013-.042-.036-.039-.048.016-.056.056-.08.106-.086.073-.01.145-.025.217-.037.049-.007.097-.017.145-.024.046-.058.093-.114.136-.173.067-.091.067-.094-.025-.158-.06-.042-.122-.08-.182-.12-.072.013-.146.026-.218.037-.09.013-.128-.015-.151-.114-.02-.086.004-.16.075-.179.072-.018.14-.03.176-.107.035-.075.097-.104.173-.11.049-.004.097-.015.146-.024.063-.012.097-.09.083-.176-.007-.056-.022-.103-.079-.115-.254-.053-.257-.052-.383-.155-.012-.009-.02-.036-.016-.05.007-.023.023-.056.04-.06.17-.034.339-.064.507-.087.056-.008.097-.018.116-.074.027-.078.015-.15-.036-.202-.016-.017-.043-.038-.06-.037-.194.028-.387.063-.58.09-.018.003-.05-.023-.058-.043-.014-.036.008-.084.059-.101.067-.023.137-.024.182-.1.063-.108.141-.206.212-.31.011-.018.03-.053.026-.056-.037-.033-.08-.059-.118-.09-.064-.054-.064-.128-.05-.2.012-.057.056-.08.11-.08.024 0 .054 0 .073-.014.05-.033.066-.075.04-.107-.014-.018-.04-.044-.058-.041-.314.05-.63.098-.943.16-.092.019-.135-.039-.19-.08-.043-.032-.083-.044-.136-.021-.05.021-.098.01-.129-.041-.025-.04.02-.076.138-.115.022-.008.047-.012.063-.027.17-.164.17-.166.288-.187.115-.02.115-.021.175-.11.028-.04.058-.081.085-.124.01-.016.028-.047.022-.056-.032-.047-.076-.057-.128-.047-.114.026-.25.005-.31.149-.023.054-.06.07-.113.079-.531.088-1.063.182-1.596.267-.087.013-.126.07-.16.132-.03.051-.062.066-.118.075-.055.01-.1.014-.132-.036-.019-.03-.003-.073.041-.115.063-.06.052-.137.031-.208a.11.11 0 0 0-.108-.077c-.072.006-.141.022-.202-.038-.035-.035-.079-.06-.119-.09-.076-.062-.152-.126-.26-.085-.073-.015-.124-.07-.183-.112-.099-.07-.107-.08-.037-.155.08-.083.018-.192.062-.274.047-.088.111-.166.169-.247l.042-.063c-.033-.03-.064-.068-.104-.09-.051-.026-.078-.06-.075-.154-.01-.013-.006.021.006.03.013.01.046.002.062-.009.04-.028.061-.066.051-.098-.006-.017-.034-.038-.051-.038-.033 0-.06.033-.07.115a2.35 2.35 0 0 1-.505.117c-.017.003-.04-.027-.06-.043-.067-.051-.067-.05-.266-.065-.02-.001-.048-.022-.058-.044-.043-.092-.041-.194-.062-.292.038-.064.076-.126.116-.189.08-.125.182-.236.244-.374-.013-.074-.031-.149.034-.21.183-.075.182-.075.232-.148.142-.206.283-.414.431-.617.04-.053.04-.082-.03-.105a.176.176 0 0 0-.07-.005c-.073.011-.146.038-.218.032-.072-.004-.125-.071-.184-.112-.06-.042-.12-.086-.18-.13-.07.004-.138.047-.208-.022-.052-.053-.118-.09-.179-.135.046-.115.131-.203.197-.305.06-.092.062-.09.223-.162.077-.033.103-.204.038-.255-.077-.06-.16-.116-.239-.174-.069.005-.14.046-.205-.023-.052-.051-.11-.086-.196-.066-.144.033-.29.05-.436.077-.05.009-.104.003-.126-.049-.015-.036.028-.086.076-.097.074-.015.14-.033.176-.109.036-.076.1-.098.177-.11a.085.085 0 0 0 .054-.039c.053-.088.112-.163.225-.16.047-.03.072-.069.057-.105-.009-.02-.04-.046-.057-.043-.122.016-.244.03-.363.058-.056.012-.099.015-.134-.03-.025-.03-.012-.072.035-.116a.156.156 0 0 0 .05-.133c-.007-.12-.051-.155-.192-.147-.101.006-.126-.014-.148-.117-.006-.024-.02-.058-.01-.074.063-.103.104-.23.223-.28.047-.017.097-.017.126-.057.03-.04.056-.085.087-.123.038-.045.064-.088.047-.117-.03-.051-.077-.056-.131-.037-.047.015-.097.016-.145.025-.087.017-.158-.022-.168-.09-.028-.175-.057-.35-.082-.525a.108.108 0 0 1 .016-.067c.041-.064.085-.125.128-.187.05-.071.129-.057.197-.071.095-.02.095-.018.223-.164.05-.058.136-.035.188-.086.016-.017.04-.044.036-.06-.005-.02-.035-.034-.057-.043-.02-.01-.045-.014-.067-.01-.268.045-.533.092-.8.134-.046.008-.096-.026-.112-.073-.016-.044-.012-.097-.015-.147.043-.062.091-.12.128-.186.028-.052.06-.075.116-.078.073-.004.145-.023.227-.036.153-.222.303-.454.467-.675.066-.09.05-.18.064-.276.013-.088.111-.075.177-.1.053-.022.07-.07.05-.104-.012-.02-.038-.042-.059-.042-.048 0-.097.014-.145.021-.048.008-.104.003-.144.03-.038.023-.063.075-.088.119-.028.048-.065.065-.12.068-.072.003-.144.017-.216.027-.08-.059-.162-.116-.238-.178-.015-.013-.018-.047-.016-.07.003-.06-.02-.096-.068-.125-.041-.024-.075-.059-.113-.09.03-.04.062-.08.085-.123.052-.093.116-.16.228-.157.044-.059.08-.132.136-.173.055-.04.147 0 .188-.09.02-.043.052-.093.091-.111.064-.03.146-.014.183-.099.022-.048.054-.092.096-.105.049-.013.099-.016.134-.045.02-.015.04-.04.04-.06 0-.014-.03-.036-.05-.045a.112.112 0 0 0-.066-.015c-.074.01-.146.026-.22.035-.02.003-.043-.008-.065-.017-.065-.024-.06-.054-.009-.109.051-.053.088-.121.13-.184.048-.01.106-.005.139-.034.054-.047.092-.116.136-.175.049-.009.099-.012.144-.029.02-.006.028-.039.044-.059.03-.038.055-.092.094-.11.065-.028.144-.017.182-.1.022-.05.056-.1.097-.104.115-.006.163-.09.222-.168.044-.06.138-.029.187-.088.032-.038.055-.085.088-.121.013-.016.04-.023.063-.028.12-.022.242-.04.363-.063.019-.005.036-.028.051-.046.03-.04.05-.094.088-.12.038-.026.093-.026.14-.033.15-.023.163-.017.232-.146.055-.104.192-.03.237-.145.027-.067.075-.122.162-.13.122-.01.242-.039.364-.058.109-.019.107-.019.225-.16.053-.063.13-.054.2-.066.073-.013.14-.03.176-.107.035-.074.1-.098.175-.109.069-.01.146-.003.2-.063.133-.146.132-.148.224-.163.145-.024.29-.048.436-.074.097-.017.198-.02.29-.053.066-.024.095-.11.138-.168.12-.023.24-.046.36-.067l.51-.087c.074-.057.084-.185.207-.19.074-.004.146-.023.22-.036.121-.02.242-.048.363-.059.093-.007.11-.09.158-.14.016-.02.03-.045.05-.05.19-.042.387-.051.574-.113.019-.006.036-.038.04-.06.004-.013-.021-.036-.037-.046-.02-.012-.044-.025-.065-.022l-1.82.307c-.085.015-.085.014-.292.18a.159.159 0 0 1-.06.034c-.097.018-.195.028-.29.051a.2.2 0 0 1-.199-.054.158.158 0 0 0-.13-.049c-.056.005-.093.021-.125.062-.043.056-.065.13-.155.144-.412.066-.825.138-1.236.208-.058-.021-.085-.053-.07-.09.008-.024.026-.054.043-.057.17-.032.34-.06.508-.09.024-.004.056-.001.07-.016.064-.068.088-.18.21-.187.07-.004.142-.027.21-.048.019-.006.036-.038.04-.06.002-.013-.021-.036-.039-.046-.065-.044-.14.009-.204-.022-.022-.01-.053-.025-.057-.044-.003-.016.022-.044.04-.06a.132.132 0 0 1 .06-.034c.193-.035.387-.07.581-.098a.208.208 0 0 0 .17-.119c.027-.051.06-.078.109-.086.34-.056.678-.118 1.02-.17.084-.012.128-.062.164-.127.028-.052.06-.07.114-.08.486-.078.97-.166 1.455-.242.09-.013.117-.079.162-.135.016-.02.026-.044.047-.056.02-.012.047-.01.072-.014.388-.065.775-.135 1.165-.195.09-.014.108-.09.155-.143.016-.016.031-.044.05-.048.29-.052.582-.1.872-.15l.582-.1c.095-.014.095-.016.225-.16.014-.017.035-.036.054-.04.558-.098 1.115-.19 1.673-.286.047-.008.08-.042.104-.094.023-.052.057-.086.103-.094.436-.076.872-.15 1.31-.221a.213.213 0 0 0 .17-.117c.026-.052.059-.08.109-.087.436-.073.872-.15 1.31-.22.083-.013.124-.065.166-.126.014-.02.026-.056.044-.059.217-.042.433-.086.652-.115.09-.012.121-.076.158-.136.03-.049.063-.066.12-.072.121-.013.241-.04.36-.065.018-.005.04-.038.041-.06.003-.039-.03-.066-.086-.08-.582.1-1.165.198-1.746.296-.096.017-.096.017-.225.161-.015.017-.035.036-.056.041l-1.672.285c-.047.008-.081.043-.105.094-.023.052-.057.087-.102.094-.534.091-1.067.184-1.601.27-.08.012-.135.047-.17.117-.027.052-.06.079-.11.086-.509.085-1.017.175-1.528.257a.076.076 0 0 1-.087-.078c.002-.02.024-.056.042-.059.265-.05.53-.101.797-.14.09-.011.116-.078.162-.134.014-.02.026-.046.045-.056.02-.013.047-.011.072-.014.63-.108 1.26-.217 1.891-.319.092-.015.11-.089.156-.142.016-.018.031-.046.05-.049.194-.036.388-.068.582-.1l1.019-.173c.098-.016.098-.016.225-.159.014-.017.035-.038.054-.04.897-.154 1.794-.307 2.692-.459.047-.008.08-.042.104-.094.023-.05.057-.086.103-.096 1.213-.206 2.424-.412 3.637-.615.08-.014.135-.046.17-.117.026-.052.06-.079.11-.088 1.333-.226 2.666-.452 4.001-.68.897-.151 1.795-.306 2.692-.455.082-.013.126-.06.167-.122.013-.022.027-.057.044-.06.193-.038.385-.072.577-.107l.181.121.135-.174c.29-.044.577-.113.871-.134.02-.001.04.027.06.043.137.095.215.088.301-.04.031-.045.058-.086.105-.094.145-.027.292-.045.436-.077a.202.202 0 0 1 .198.053c.04.04.08.056.13.047.267-.046.532-.09.8-.138.019-.003.036-.029.05-.047.032-.04.058-.082.088-.123.04.026.083.046.116.079.04.04.079.04.135.029 1.066-.184 2.133-.363 3.2-.548.09-.015.13.049.192.082.02.012.041.027.063.03.024.003.049-.006.072-.01.8-.137 1.6-.272 2.401-.408.106-.018.106-.018.263.076.02.012.044.025.065.02.364-.058.728-.122 1.09-.183.048-.007.087.017.13.052.084.068.09.068.151-.032.03-.047.06-.076.109-.09a.153.153 0 0 1 .136.017c.06.038.102.102.191.085.388-.071.777-.13 1.164-.203.088-.017.135.035.193.073.02.013.04.035.062.04.022.004.048-.007.072-.011.485-.082.97-.163 1.454-.25.09-.017.13.048.192.081.02.012.044.034.063.03.291-.046.583-.097.874-.147.104-.018.104-.016.263.076.019.012.044.025.065.021l1.019-.17c.104-.02.104-.02.405.06.022.006.046.015.068.012.387-.065.776-.129 1.164-.199.078-.013.143-.001.198.053.04.04.081.056.13.047.436-.074.873-.145 1.308-.224.084-.015.138.018.197.062.019.015.038.036.06.042.022.007.047 0 .07-.004.437-.074.874-.144 1.309-.225.088-.016.135.035.194.073.02.014.042.041.06.04.17-.026.34-.049.51-.087.09-.021.13.049.192.082.02.01.044.034.063.03.364-.059.729-.12 1.091-.185.052-.009.09.005.131.044a.203.203 0 0 0 .197.058c.169-.035.339-.06.51-.088.1-.017.1-.017.405.062.022.006.045.015.067.012.291-.048.583-.095.873-.148.077-.015.142-.002.198.053.04.04.08.056.129.047l.8-.137c.097-.016.194-.045.291-.045.07.001.122.074.185.11.018.011.047 0 .07-.004.34-.058.68-.11 1.018-.176.089-.017.136.035.194.073.02.014.043.04.06.04.122-.017.243-.04.365-.06.145-.024.292-.042.436-.076.117-.027.161.105.255.11.072.004.146-.022.218-.034.145-.024.29-.051.436-.073.051-.007.09-.031.107-.086.003-.01-.022-.033-.038-.047-.195-.155-.195-.155-.392-.121-.122.02-.243.042-.364.06-.021.003-.045-.009-.065-.018-.059-.026-.053-.056-.003-.11.05-.055.088-.122.13-.184l.18.118.145-.024c.242-.04.485-.08.727-.117.018-.003.04.027.06.043.06.044.112.081.197.065.218-.044.436-.076.654-.114.095-.017.095-.017.263.077.019.01.044.023.064.02.219-.035.436-.073.655-.11.047-.007.093.013.126.057.014.018.01.048.066.297.174.202.293.18.413.163.052-.008.097-.016.13-.046.018-.017.04-.04.04-.06 0-.016-.032-.04-.052-.043-.146-.03-.284.033-.426.047-.066.006-.124-.047-.135-.134a1.274 1.274 0 0 0-.012-.074c-.005-.024-.008-.05-.012-.074-.057-.008-.09.02-.116.071a.263.263 0 0 1-.09.114c-.04.024-.093.02-.142.027-.047.008-.098.027-.142.017-.044-.012-.08-.056-.12-.084-.02-.013-.043-.033-.063-.03-.168.026-.336.052-.503.085-.088.018-.132-.045-.188-.085-.044-.03-.088-.023-.096.047-.019.167.049.237.199.205.123-.027.235-.032.331.071.014.014.045.02.064.017.12-.018.239-.041.36-.06a.163.163 0 0 1 .066.01c.3.082.3.083.4.065.049-.01.096-.017.091-.247.093-.247.24-.264.382-.3.093-.023.133.043.193.078.02.012.042.037.061.034.316-.05.63-.103.945-.16.052-.009.09 0 .132.04.053.05.111.082.195.064.167-.037.338-.06.508-.09.087-.015.087-.015.262.079.019.01.044.023.064.02.17-.026.34-.058.508-.085.047-.008.09.013.127.054.036.041.08.063.126.055.17-.027.34-.058.508-.085.02-.003.046.008.065.018.179.094.179.094.261.08.12-.024.244-.034.363-.065.116-.03.176.058.255.107.218-.035.436-.064.652-.107.088-.018.135.032.194.072.02.013.041.042.06.04.074-.005.146-.022.218-.034l.217-.037c.082.044.137.147.254.113.07-.022.145-.026.218-.038l.217-.037c.048-.007.098-.012.145-.026.087-.022.13.052.191.085.02.011.044.03.063.026.146-.021.292-.04.435-.074.11-.027.185.018.263.082a.09.09 0 0 0 .064.018c.17-.026.34-.058.508-.085.046-.008.09.017.127.056.038.041.08.06.128.053.169-.027.339-.057.508-.085.02-.003.045.01.064.022.165.094.165.095.262.077.023-.005.048-.008.072-.012.12-.022.245-.03.362-.065.136-.041.234.01.33.097.12-.019.243-.03.36-.06.089-.022.136.035.195.073.02.014.042.041.06.038.17-.026.34-.048.508-.086.09-.022.13.047.192.082.02.012.043.033.062.03.097-.012.194-.03.29-.047.114-.02.114-.018.264.074.07.044.14.01.21-.001.073-.012.142-.022.2.04.037.04.081.064.127.058.097-.013.195-.027.29-.05.077-.018.143-.006.199.05.04.04.08.06.13.05.217-.036.435-.074.653-.109.019-.003.045.01.063.024.041.028.08.058.12.088.096-.013.194-.02.288-.04.1-.022.191-.03.269.054.016.018.04.044.059.043.073-.007.145-.022.217-.034l.217-.036c.084.038.137.147.254.112.07-.021.146-.026.218-.038.072-.012.145-.026.217-.036.023-.003.05-.011.07-.005.023.006.042.027.06.043.06.044.114.088.198.062.07-.021.145-.026.217-.04.098-.016.098-.016.261.08.066.039.141-.013.204.02.043.023.08.061.12.087a.11.11 0 0 0 .067.012c.097-.014.195-.027.29-.05a.196.196 0 0 1 .197.055c.04.039.08.056.13.047.242-.043.484-.08.725-.126a.19.19 0 0 1 .194.063c.078.094.188-.016.269.06.05.047.1.101.19.078.168-.039.338-.06.507-.088l.182.123.291-.048c.072-.012.145-.026.217-.037.024-.003.049-.009.07-.001.023.007.04.027.061.042.102.075.102.076.269.046.072-.014.14-.023.201.038.056.056.122.066.198.05.144-.03.29-.053.436-.075.046-.007.089.019.127.058.057.062.128.056.2.04.095-.022.189-.043.27.042.016.018.04.044.058.042.12-.012.243-.02.36-.05.118-.028.175.066.256.111l.362-.059c.024-.005.052-.018.072-.01.087.031.137.145.256.11a1.03 1.03 0 0 1 .216-.03c.019-.002.044.024.057.044.007.01 0 .04-.009.054-.026.043-.058.082-.082.126-.003.006.025.034.041.046.04.027.085.023.138.01.046-.01.093.011.125.056.013.019.009.049-.02.15 0 .073.032.04.042-.008.016-.07-.015-.093-.073-.055-.041.027-.062.067-.052.099.006.016.034.037.084-.037a.693.693 0 0 1 .323-.124c.025-.005.054-.02.072-.01.063.036.122.08.184.12.07-.009.136-.031.205.028.097.083.102.076.195.059.049-.01.097-.017.146-.024.048-.008.086.015.13.05.086.071.093.071.15-.026.034-.06.058-.079.1-.052.141.093.143.099.263.072.1-.023.194-.03.267.057.05.061.066.047.106-.016.106-.169.154-.166.353-.044.092.057.188-.005.281-.013.08-.006.136.03.142.126.004.06.017.102.07.122.02.007.046.018.066.015.122-.018.242-.04.364-.06.062-.011.096-.083.084-.177-.013-.1.01-.136.098-.165.053-.017.096-.014.138.014.047.03.034.057-.007.112-.098.133-.087.215.04.308.044.032.079.06.09.107.005.025 0 .057.012.075a.65.65 0 0 0 .284.215c.107-.04.18.027.263.082.064.042.14.006.21-.01.078-.016.142-.004.198.052.04.04.08.058.13.05.096-.016.195-.027.29-.051.082-.021.144.01.195.06.065.066.137.022.204.031.092.01.137.146.256.11.07-.022.144-.03.217-.036.02-.001.043.025.06.043.077.083.168.079.268.054.069-.016.136-.031.204.026.111.097.235.182.352.272.017.07.005.151.088.192a.431.431 0 0 1 .12.088c.04.041.079.052.132.041.095-.021.195-.026.289-.053.087-.024.14.026.194.073.042.038.082.056.133.029.053-.026.091-.01.134.032.06.056.065.05.264.066.02.002.046.025.058.044.005.01-.008.041-.018.056-.013.019-.034.04-.053.044-.217.04-.436.075-.653.114a.132.132 0 0 0-.062.03c-.018.017-.04.04-.04.061 0 .015.03.034.05.044.065.035.141-.018.204.021.043.026.078.063.12.087.018.01.046.009.068.006.074-.01.146-.026.22-.035.02-.002.043.014.062.026.141.09.141.09.263.071.049-.008.1-.03.146-.021.044.009.082.05.121.076.083.054.16.107.166.226.003.045.052.085.1.088.047.003.097-.014.146-.023.114-.018.114-.018.263.074.04.026.085.029.138.014.02-.006.045 0 .067.007.072.023.072.052.025.107-.066.08-.06.088.125.156.07.026.125.074.183.117.096.068.094.068.031.157l-.042.063c-.043.059-.077.122-.165.128-.097.007-.194.03-.29.048-.094.016-.12.053-.11.156.01.124.029.138.198.136.048 0 .09.012.127.053-.017.049-.05.087-.097.096-.12.023-.242.042-.362.062l-.291.05c-.06.01-.099.09-.082.178l.023.15c.016.1.047.126.146.121.025-.001.048-.014.072-.01.095.01.14.136.255.11.096-.021.195-.026.29-.053.086-.024.134.03.195.071.02.014.042.043.06.041.122-.016.244-.033.363-.062.055-.012.09-.003.133.033.106.088.109.084.266.057.115-.022.116-.019.263.074.041.026.085.026.138.014.069-.016.14-.04.213-.017.022.006.05.024.057.044.005.014-.016.047-.034.058-.129.078-.28.065-.421.097-.044.009-.088-.02-.125-.061-.038-.041-.08-.058-.13-.05-.096.017-.194.027-.29.051-.082.022-.14-.013-.197-.06-.019-.015-.04-.044-.06-.043-.217.03-.436.061-.652.103-.087.019-.136-.03-.195-.07-.02-.014-.041-.043-.06-.042-.074.006-.146.023-.22.035-.266.046-.532.091-.8.134-.017.003-.04-.03-.06-.043a3.45 3.45 0 0 0-.122-.079c-.073.012-.145.028-.218.037-.053.006-.1.027-.108.085-.004.037.044.072.096.07.05-.004.1-.022.14-.002.205.097.205.098.333.079.111-.019.1-.034.198.05.042.036.08.057.13.048.12-.021.241-.042.363-.06.02-.003.044.012.063.024.144.09.144.094.263.071.156-.027.162-.035.266.058.072.063.138.02.207.016.08.06.166.113.238.18.085.078.175.065.272.042.072-.017.142-.023.2.04.057.057.124.063.2.048.07-.014.14-.043.212-.01.02.01.049.033.047.046a.086.086 0 0 1-.04.061c-.135.062-.283.06-.425.09-.02.004-.044-.013-.064-.025-.04-.027-.08-.059-.12-.088-.072.01-.145.012-.216.03-.054.014-.095.013-.135-.024-.037-.033-.076-.074-.12-.085-.044-.01-.096.012-.144.022-.049.009-.105.004-.143.028-.038.025-.061.078-.086.12-.028.047-.067.062-.122.067-.052.005-.093-.002-.131-.044a.223.223 0 0 0-.06-.044c-.02-.01-.044-.027-.063-.024-.22.035-.436.073-.655.109-.109.018-.108.018-.334-.071-.02-.008-.045-.019-.066-.016-.122.019-.242.04-.364.061-.123.021-.122.018-.332-.077-.038-.018-.094.006-.14.003-.095-.008-.142-.135-.253-.11-.096.02-.196.025-.291.052-.087.024-.137-.029-.195-.07-.021-.013-.043-.044-.06-.04-.22.033-.437.07-.728.075-.072 0-.04.032.008.043.067.016.09-.015.053-.076-.027-.043-.065-.064-.096-.053-.016.006-.037.035.035.086.077.058.072.09.086.108a.13.13 0 0 0 .124.056c.074-.01.146-.026.22-.035.02-.003.045.008.064.02.161.094.163.1.335.064.054-.011.094-.011.136.018.059.04.102.106.191.085.12-.03.241-.046.363-.062.019-.003.04.024.062.036.06.036.104.105.193.076a.867.867 0 0 1 .218-.034c.019-.001.048.023.057.043.018.035-.004.076-.054.105-.02.012-.049.009-.072.013-.097.017-.194.035-.291.049-.051.007-.1.03-.106.086-.004.038.049.071.099.068.073-.004.146-.016.217-.036.125-.033.233-.024.335.071.072.067.067.043.144.24.019.05.076.055.126.052.12-.008.176.015.166.062-.013.057-.056.076-.11.083-.097.012-.194.032-.291.049-.023.004-.05.013-.072.01-.022-.003-.043-.02-.062-.035-.04-.028-.076-.072-.12-.083-.044-.01-.096.012-.144.021-.048.008-.1.03-.144.02-.044-.01-.08-.056-.12-.083-.02-.014-.043-.035-.062-.034-.097.012-.194.032-.29.047-.12.02-.12.02-.264-.074-.04-.027-.083-.026-.138-.014-.117.024-.119.02-.333-.068-.02-.01-.046-.02-.066-.015-.219.035-.436.073-.654.109-.186.032-.186.032-.289.184-.076.112-.078.112-.003.163.06.043.115.105.18.128.063.021.139-.047.206.022.034.035.078.073.12.08.068.007.14-.037.205.03.032.033.08.068.122.07.072.003.145-.022.217-.032a.145.145 0 0 1 .068.004c.022.01.04.027.06.043.059.051.122.075.198.05a.3.3 0 0 1 .334.075c.013.014.045.016.066.01.053-.015.098-.017.138.012.016.012.04.033.036.047-.004.022-.022.053-.04.06-.139.052-.287.058-.43.085-.019.003-.042-.016-.061-.03-.041-.027-.077-.073-.12-.083-.045-.011-.096.009-.145.016-.048.008-.1.03-.143.021a.301.301 0 0 1-.12-.081c-.042-.038-.082-.043-.136-.028-.07.02-.144.023-.216.034-.04-.03-.08-.061-.12-.088-.02-.014-.043-.03-.063-.03-.097.013-.194.031-.291.048-.097.017-.097.017-.262-.077-.019-.011-.044-.023-.064-.02-.122.018-.243.04-.364.059-.047.008-.09-.014-.128-.055-.037-.04-.081-.063-.126-.056-.194.032-.388.063-.582.1-.078.016-.144.002-.197-.053-.061-.062-.13-.047-.203-.035-.162.03-.164.03-.268-.048-.02-.015-.041-.044-.06-.043-.17.023-.34.044-.507.08-.088.02-.135-.033-.194-.072-.02-.014-.043-.042-.06-.04-.122.017-.244.032-.363.063-.119.03-.164-.111-.254-.11-.122.002-.242.037-.363.058l-.29.05c-.097.017-.194.03-.291.05-.052.01-.09-.003-.132-.04-.055-.05-.12-.09-.178-.136-.09-.065-.09-.065-.198-.047l-.072.012c-.178.034-.178.03-.404-.065-.01-.004-.037.012-.047.025-.03.039-.059.081-.087.122-.04-.024-.088-.038-.114-.072-.075-.099-.193.036-.269-.061a.221.221 0 0 0-.12-.077c-.046-.01-.097.012-.144.02-.122.024-.122.022-.227.157-.052.067-.129.055-.198.07-.072.016-.14.026-.2-.037-.055-.056-.121-.07-.2-.051-.095.023-.193.036-.29.05a.13.13 0 0 1-.066-.014c-.225-.09-.225-.09-.333-.071-.049.009-.099.012-.146.026-.08.024-.14-.008-.197-.056-.019-.016-.04-.044-.06-.043-.097.008-.192.021-.288.035-.073.01-.147.017-.217.038-.117.035-.175-.064-.255-.11-.12.02-.243.034-.363.061-.056.013-.093.008-.135-.028-.055-.046-.105-.097-.193-.075-.117.03-.24.041-.36.06-.082-.048-.14-.143-.256-.108-.07.02-.146.025-.218.038-.097.016-.194.031-.29.05-.105.018-.103.013-.263-.076-.093-.053-.188.006-.282.015-.074.008-.11.077-.093.167.018.09-.022.16-.09.171-.168.03-.339.06-.508.085-.02.003-.045-.007-.064-.018-.18-.096-.18-.094-.262-.08-.12.022-.243.034-.362.063-.083.02-.143-.012-.196-.063a.136.136 0 0 0-.132-.04c-.581.102-1.163.196-1.743.3-.087.016-.137-.028-.195-.07-.02-.013-.04-.042-.06-.042-.049 0-.097.014-.146.023-.217.036-.435.08-.653.108-.093.012-.118.082-.157.14a.152.152 0 0 1-.12.067c-.054.007-.092-.001-.133-.04-.053-.052-.113-.084-.195-.063-.096.025-.193.035-.291.052a.12.12 0 0 0-.105.09c-.002.008.028.031.046.045.059.045.115.098.18.13.068.032.142-.004.212-.013.025-.003.049-.012.072-.01a.12.12 0 0 1 .065.022c.076.068.157.115.263.074.09.02.138.146.254.112.07-.02.144-.028.217-.036.02-.002.04.026.06.04.059.037.106.098.194.072.094-.027.194-.032.29-.053.052-.012.09-.001.132.038.052.05.113.088.195.064.07-.021.145-.026.217-.04.094-.016.094-.015.262.08.019.01.044.022.064.019.122-.018.243-.041.364-.06.047-.007.093.013.125.057.013.018.009.048.013.074-.242.041-.484.076-.725.126-.091.02-.132-.042-.192-.077-.021-.012-.043-.038-.062-.035-.17.026-.34.053-.508.086-.053.01-.093.005-.132-.04-.102-.116-.225-.052-.34-.036-.088.013-.116.06-.105.16.013.118.066.154.2.133.05-.007.098-.018.146-.024.047-.006.09.014.128.054.037.041.08.063.126.057.097-.014.196-.028.29-.05.077-.019.142-.004.196.053.06.062.131.048.202.034.164-.03.166-.028.268.048.02.015.041.044.06.042.17-.023.34-.042.506-.079.086-.018.136.03.194.07.02.014.04.044.06.04.122-.016.243-.033.362-.061.056-.014.09-.005.136.031.108.09.111.087.265.058.047-.009.099-.026.143-.014.044.013.08.057.12.084.02.012.043.029.063.026.097-.012.194-.03.291-.047.091-.017.091-.015.262.079.069.039.14.006.21-.007.075-.013.142-.013.2.046.057.06.126.056.199.044.07-.012.14-.045.21-.004.162.094.162.095.261.077.146-.026.29-.05.437-.073.019-.003.044.015.063.027.04.028.076.073.12.084.044.012.096-.006.143-.015.15-.03.161-.04.262.06.086.082.191-.036.27.058.046.053.108.095.193.07.07-.022.144-.028.217-.04.116-.02.116-.018.263.073.02.012.044.027.063.024.097-.012.196-.023.29-.05.11-.032.18.026.263.082.064.044.14.008.21-.008.075-.015.142-.01.198.05.059.06.128.052.201.04.069-.01.14-.045.21-.003.151.094.151.094.261.076.097-.017.194-.035.291-.047.02-.003.043.016.062.03.041.027.076.073.12.084.044.01.096-.01.144-.017.049-.008.1-.03.144-.021.044.009.085.047.12.08.042.04.08.044.136.029.07-.02.144-.024.216-.035.04.029.08.058.118.09.04.033.083.03.137.02.18-.037.182-.033.333.061.07.043.141.008.21-.003.074-.012.143-.018.2.043.056.057.125.065.198.047a.949.949 0 0 1 .146-.024.104.104 0 0 1 .064.016c.078.064.155.122.262.08.094.013.14.137.254.113.095-.021.195-.026.29-.053.086-.024.147.018.192.071.079.094.19-.033.27.06.045.052.104.095.192.072.097-.024.128.008.156.103.016.055.013.099-.016.141-.03.044-.062.037-.11-.013-.053-.057-.118-.067-.196-.055-.076.012-.123-.067-.186-.097-.064-.032-.138.021-.204-.02-.156-.095-.156-.095-.262-.077-.072.012-.147.018-.217.04-.084.025-.138-.022-.195-.064-.021-.016-.042-.044-.06-.043-.168.023-.338.044-.506.082-.088.02-.135-.035-.194-.073-.02-.014-.042-.04-.06-.038-.145.021-.29.049-.435.075-.028.04-.058.08-.085.124-.028.045-.066.065-.122.064-.092 0-.183.063-.276-.017-.095-.082-.103-.077-.195-.058-.118.026-.242.02-.353.08-.019.01-.04.039-.04.06 0 .014.03.033.05.045.064.037.139-.016.203.022.043.024.078.06.12.086.018.01.045.01.068.008.025-.002.049-.012.072-.011a.12.12 0 0 1 .064.024c.08.058.165.111.237.18.07.066.137.02.207.018.282.106.282.107.472.074.047-.008.095-.017.144-.015.02 0 .04.027.06.042.059.046.115.086.197.062.07-.021.145-.025.217-.04.097-.016.097-.016.261.08.042.024.086.02.139.009.045-.01.092.012.124.056.014.018.01.048.014.074-.146.024-.293.041-.434.078-.09.022-.132-.043-.192-.078-.02-.012-.043-.038-.062-.035a8.59 8.59 0 0 0-.432.08c-.017.002-.04.037-.04.058-.004.04.033.078.086.076.07-.001.14-.027.203.035.053.055.119.079.197.055.046-.014.096-.014.143-.026.125-.037.238-.029.332.074.072.027.143.002.212-.012.051-.01.101-.021.138.008.078.06.154.121.261.08.116.043.204.132.301.205.046.035.081.054.134.032.022-.01.048-.01.072-.014.048-.008.1-.03.144-.021.044.01.08.054.12.082.02.013.041.036.06.035.074-.008.146-.023.218-.035l.216-.032.182.118.289-.048c.107-.019.107-.017.261.077.07.042.143.015.209-.005.11-.031.183.026.261.087.016.012.046.02.065.013a.19.19 0 0 1 .198.052c.04.04.08.058.128.05.169-.029.338-.059.507-.085.02-.003.044.01.063.023.15.092.151.097.261.073.099-.021.19-.03.267.053.017.018.041.044.06.042.12-.015.241-.032.36-.057.055-.013.093-.008.135.027.055.044.103.097.193.077.248-.056.25-.047.543.058.02.008.049-.005.072-.01.05-.016.087.005.13.04.1.08.102.075.196.058.072-.014.147-.017.218-.04.108-.033.18.026.261.082.065.044.14.008.209-.006.074-.015.142-.01.198.047.038.04.079.061.128.053.168-.027.337-.057.506-.085.02-.003.046.01.065.02.167.094.167.099.333.064.053-.01.097-.014.137.018.038.03.079.06.119.088.072-.01.145-.014.215-.032.055-.013.093-.007.136.024.055.042.102.113.19.078.046-.017.099-.012.144-.027.055-.02.091-.008.134.031.053.047.107.096.192.072.094-.028.194-.032.29-.053.053-.012.09 0 .132.04.053.05.113.081.195.061.168-.038.17-.03.332.066.041.024.085.02.138.009.046-.011.093.012.125.056.03.048.028.079.03.104zM86.646 2.27c-.049.008-.097.017-.168-.115-.004-.023-.001-.05-.011-.07a.14.14 0 0 0-.105-.074c-.079-.006-.174.045-.173.085.001.033.026.062.075.089.02.01.037.029.056.041.056.035.1.103.18.068-.014-.094-.007-.047 0 0-.007.058.015.099.068.116a.06.06 0 0 0 .048-.008c.046-.033.053-.079.02-.199-.006.02-.002.055.011.064.013.009.046.001.062-.01.041-.028.062-.066.051-.098-.006-.016-.034-.038-.051-.038-.03 0-.059.034-.063.149zm11.874 17.59c-.107.028-.23.018-.338.077a.086.086 0 0 0-.04.059c0 .014.029.033.046.044.04.024.084.017.136.009.077-.01.123.06.183.094a.11.11 0 0 0 .065.015c.119-.018.236-.038.355-.059a.159.159 0 0 0 .06-.029c.059-.044.053-.072-.004-.106-.063-.036-.113-.097-.178-.126-.092-.04-.186.014-.285.021zm-8.34 1.107-.214.036c-.023.005-.048.006-.07.012-.046.01-.08.043-.102.093.034.04.075.062.12.057.073-.009.143-.029.215-.033.078-.006.123.062.184.097.019.01.042.012.064.014.109.006.175-.073.154-.184-.014-.086-.07-.138-.138-.127-.07.01-.142.022-.212.035zm8.843-3.35c.017-.025.036-.043.045-.066a.186.186 0 0 0-.032-.196c-.059-.074-.13-.024-.197-.016-.016.001-.034.033-.043.053-.005.013-.005.042.003.05.072.06.149.117.224.176zm-12.74-4.48c-.07.013-.142.022-.213.038-.017.005-.034.034-.044.053-.019.037.001.087.062.091.069.006.14-.02.213-.031.09-.016.145-.072.111-.12-.032-.047-.076-.056-.129-.03zM8.98 9.896c.047-.009.095-.015.142-.025.045-.01.078-.044.1-.094-.036-.04-.077-.06-.123-.056-.072.009-.142.02-.213.036a.123.123 0 0 0-.097.094c-.01.04.088.062.191.044zm71.092-.235c.019.014.038.041.057.041.047 0 .095-.009.14-.024.018-.006.033-.033.042-.054a.06.06 0 0 0-.004-.05c-.043-.073-.213-.047-.241.036-.003.015.004.035.006.052zm-4.634-8.305c.005.024.006.048.012.073a.157.157 0 0 0 .091.101.171.171 0 0 0 .055-.126.409.409 0 0 0-.012-.072.158.158 0 0 0-.091-.102.172.172 0 0 0-.055.126zm26.977 19.874a.667.667 0 0 1-.041.057c.04.044.077.058.104.034.018-.016.028-.038.042-.058-.04-.044-.075-.056-.105-.033zm-.913.206c.019.014.037.032.057.04.034.016.065-.01.088-.064-.019-.014-.036-.032-.057-.041-.034-.015-.065.01-.088.065zm.578-.278c-.01.037.011.067.065.093.013-.02.031-.038.04-.06.014-.034-.011-.066-.063-.09-.015.018-.028.038-.042.057zm-3.1-1.635c-.01.037.01.067.065.093.013-.02.03-.038.04-.06.014-.034-.01-.066-.063-.09a.81.81 0 0 0-.042.057zM94.757 8.791c-.013.02-.026.04-.041.058.04.044.076.057.104.033.018-.015.028-.038.041-.058-.04-.044-.075-.056-.104-.033zM90.71 3.097c.035.01.065-.01.09-.067-.02-.013-.037-.031-.058-.04-.033-.016-.064.01-.088.065l.056.042zm-2.148-.356a.829.829 0 0 1-.041.057c.04.044.076.058.104.034.017-.015.028-.038.04-.058-.039-.044-.074-.055-.103-.033zm-14.57-1.387a.826.826 0 0 1-.04.058c.039.044.076.058.103.033.018-.015.028-.038.042-.057-.04-.044-.075-.055-.105-.034zM1.45 13.694c-.019-.013-.038-.027-.055-.042-.043.041-.056.079-.033.108.015.018.037.029.056.042.044-.04.054-.077.032-.107z" fill="#FFE492"/></svg>