<svg width="596" height="96" fill="none" xmlns="http://www.w3.org/2000/svg"><g clip-path="url(#a)" fill="#fff"><path d="M2.453 7.374v21.053c0 6.413 7.814 9.832 12.588 5.344L37.83 12.718C42.822 8.122 39.566 0 32.73 0H9.94C5.817 0 2.453 3.313 2.453 7.374zM110.319 0H87.53c-6.728 0-10.092 8.122-5.1 12.717l22.788 21.054c4.775 4.382 12.588 1.069 12.588-5.344V7.374c0-4.061-3.364-7.374-7.487-7.374zM65.284 51.404l39.934 36.977c4.775 4.382 12.588 1.069 12.588-5.343V61.77c0-2.03-.868-3.955-2.387-5.344L65.284 9.94a7.632 7.632 0 0 0-10.309 0L4.841 56.427c-1.52 1.39-2.388 3.313-2.388 5.344v21.267c0 6.412 7.814 9.832 12.588 5.343l39.934-36.977a7.632 7.632 0 0 1 10.31 0z"/></g><path d="M163.645 77.206 150.688 29.59h13.36l7.378 31.991h.434l7.688-31.991h13.113l7.812 31.805h.403l7.254-31.805h13.329l-12.927 47.615h-13.98l-8.184-29.946h-.589l-8.184 29.946h-13.95zM241.71 49.678v27.528h-13.206V13.719h12.834v24.273h.558c1.074-2.81 2.81-5.012 5.207-6.603 2.398-1.612 5.405-2.418 9.021-2.418 3.307 0 6.19.723 8.649 2.17 2.48 1.426 4.402 3.482 5.766 6.169 1.385 2.666 2.067 5.859 2.046 9.579v30.317h-13.206V49.244c.021-2.934-.723-5.218-2.232-6.85-1.488-1.633-3.575-2.45-6.262-2.45-1.798 0-3.389.383-4.774 1.148-1.364.764-2.438 1.88-3.224 3.348-.764 1.446-1.157 3.193-1.177 5.239zM282.977 77.206V29.59h13.206v47.615h-13.206zm6.634-53.753c-1.963 0-3.647-.65-5.053-1.953-1.384-1.323-2.077-2.904-2.077-4.743 0-1.818.693-3.379 2.077-4.68 1.406-1.323 3.09-1.985 5.053-1.985 1.964 0 3.637.662 5.022 1.984 1.405 1.302 2.108 2.863 2.108 4.681 0 1.84-.703 3.42-2.108 4.743-1.385 1.302-3.058 1.953-5.022 1.953zM332.088 29.59v9.92h-28.674v-9.92h28.674zm-22.164-11.407h13.205v44.391c0 1.22.186 2.17.558 2.852.372.662.889 1.126 1.55 1.395.682.269 1.468.403 2.356.403.62 0 1.24-.052 1.86-.155.62-.124 1.095-.217 1.426-.279l2.077 9.827c-.661.207-1.591.444-2.79.713-1.199.29-2.655.465-4.371.527-3.182.124-5.972-.3-8.37-1.271-2.376-.971-4.226-2.48-5.548-4.526-1.323-2.046-1.974-4.63-1.953-7.75V18.183zM361.878 78.136c-4.897 0-9.113-.992-12.647-2.976-3.514-2.005-6.221-4.836-8.122-8.494-1.901-3.678-2.852-8.029-2.852-13.05 0-4.898.951-9.197 2.852-12.896 1.901-3.7 4.577-6.582 8.029-8.65 3.472-2.066 7.543-3.1 12.213-3.1 3.142 0 6.066.507 8.773 1.52 2.728.992 5.105 2.49 7.13 4.495 2.046 2.004 3.637 4.526 4.774 7.564 1.137 3.017 1.705 6.55 1.705 10.601v3.627h-40.206v-8.184h27.775c0-1.9-.413-3.585-1.24-5.052a8.873 8.873 0 0 0-3.441-3.441c-1.446-.848-3.131-1.271-5.053-1.271-2.004 0-3.781.465-5.331 1.395a9.775 9.775 0 0 0-3.596 3.689c-.868 1.529-1.313 3.234-1.333 5.115v7.78c0 2.356.434 4.392 1.302 6.107.888 1.715 2.139 3.038 3.751 3.968 1.612.93 3.523 1.395 5.734 1.395 1.468 0 2.811-.207 4.03-.62 1.22-.413 2.263-1.033 3.131-1.86.868-.826 1.53-1.84 1.984-3.038l12.214.806c-.62 2.935-1.891 5.497-3.813 7.688-1.901 2.17-4.361 3.865-7.378 5.084-2.996 1.199-6.458 1.798-10.385 1.798zM392.351 95.061v-65.47h13.019v7.998h.589c.579-1.282 1.416-2.584 2.511-3.906 1.116-1.343 2.563-2.46 4.34-3.348 1.798-.91 4.03-1.364 6.696-1.364 3.472 0 6.675.91 9.61 2.728 2.935 1.798 5.28 4.515 7.037 8.153 1.756 3.616 2.635 8.153 2.635 13.608 0 5.312-.858 9.796-2.573 13.454-1.695 3.637-4.009 6.396-6.944 8.277-2.914 1.86-6.179 2.79-9.796 2.79-2.562 0-4.743-.424-6.541-1.271-1.777-.847-3.234-1.912-4.371-3.193-1.136-1.302-2.004-2.614-2.604-3.937h-.403v25.481h-13.205zm12.926-41.663c0 2.832.393 5.301 1.178 7.41.786 2.107 1.922 3.75 3.41 4.928 1.488 1.157 3.297 1.736 5.425 1.736 2.15 0 3.968-.589 5.456-1.767 1.488-1.198 2.614-2.852 3.379-4.96.785-2.128 1.178-4.577 1.178-7.347 0-2.748-.382-5.166-1.147-7.253-.765-2.088-1.891-3.72-3.379-4.898-1.488-1.178-3.317-1.767-5.487-1.767-2.149 0-3.968.568-5.456 1.705-1.467 1.136-2.593 2.748-3.379 4.836-.785 2.087-1.178 4.546-1.178 7.377zM461.169 78.105c-3.038 0-5.745-.527-8.122-1.581-2.376-1.075-4.257-2.656-5.641-4.743-1.364-2.108-2.046-4.733-2.046-7.874 0-2.645.485-4.867 1.457-6.665.971-1.798 2.294-3.244 3.968-4.34 1.673-1.095 3.575-1.922 5.703-2.48 2.15-.557 4.402-.95 6.758-1.177 2.77-.29 5.001-.558 6.696-.806 1.695-.27 2.924-.662 3.689-1.178.765-.517 1.147-1.282 1.147-2.294v-.186c0-1.964-.62-3.483-1.86-4.557-1.219-1.075-2.955-1.612-5.208-1.612-2.376 0-4.267.527-5.673 1.58-1.405 1.034-2.335 2.336-2.79 3.907l-12.213-.992c.62-2.894 1.839-5.394 3.657-7.502 1.819-2.129 4.165-3.761 7.037-4.898 2.894-1.157 6.242-1.736 10.044-1.736 2.645 0 5.177.31 7.595.93 2.439.62 4.598 1.58 6.479 2.883a14.02 14.02 0 0 1 4.495 5.022c1.095 2.025 1.643 4.453 1.643 7.285v32.115H475.46v-6.603h-.372a13.45 13.45 0 0 1-3.069 3.937c-1.281 1.116-2.821 1.994-4.619 2.635-1.798.62-3.875.93-6.231.93zm3.782-9.114c1.943 0 3.658-.382 5.146-1.147 1.488-.785 2.656-1.84 3.503-3.162.847-1.323 1.271-2.82 1.271-4.495v-5.053c-.413.269-.982.517-1.705.744-.703.207-1.498.403-2.387.59-.889.165-1.777.32-2.666.464-.889.124-1.694.238-2.418.341-1.55.228-2.903.59-4.061 1.085-1.157.496-2.056 1.168-2.697 2.015-.64.827-.961 1.86-.961 3.1 0 1.798.651 3.172 1.953 4.123 1.323.93 2.997 1.395 5.022 1.395zM519.743 78.136c-4.878 0-9.073-1.033-12.586-3.1-3.493-2.087-6.179-4.98-8.06-8.68-1.86-3.7-2.79-7.956-2.79-12.772 0-4.877.94-9.155 2.821-12.833 1.901-3.7 4.598-6.582 8.091-8.65 3.492-2.086 7.646-3.13 12.462-3.13 4.153 0 7.791.754 10.911 2.263 3.121 1.508 5.59 3.627 7.409 6.355 1.819 2.728 2.821 5.931 3.007 9.61h-12.462c-.351-2.377-1.281-4.289-2.79-5.735-1.488-1.468-3.441-2.201-5.858-2.201-2.046 0-3.834.558-5.363 1.674-1.509 1.095-2.687 2.697-3.534 4.805-.848 2.108-1.271 4.66-1.271 7.656 0 3.038.413 5.622 1.24 7.75.847 2.129 2.035 3.751 3.565 4.867 1.529 1.116 3.317 1.674 5.363 1.674 1.508 0 2.862-.31 4.06-.93 1.22-.62 2.222-1.519 3.007-2.697.806-1.198 1.333-2.635 1.581-4.309h12.462c-.207 3.638-1.199 6.84-2.976 9.61-1.756 2.749-4.185 4.898-7.285 6.448-3.1 1.55-6.768 2.325-11.004 2.325zM571.163 78.136c-4.898 0-9.114-.992-12.648-2.976-3.513-2.005-6.221-4.836-8.122-8.494-1.901-3.678-2.852-8.029-2.852-13.05 0-4.898.951-9.197 2.852-12.896 1.901-3.7 4.578-6.582 8.029-8.65 3.472-2.066 7.543-3.1 12.214-3.1 3.141 0 6.065.507 8.772 1.52 2.728.992 5.105 2.49 7.13 4.495 2.046 2.004 3.638 4.526 4.774 7.564 1.137 3.017 1.705 6.55 1.705 10.601v3.627h-40.206v-8.184h27.775c0-1.9-.413-3.585-1.24-5.052a8.877 8.877 0 0 0-3.44-3.441c-1.447-.848-3.131-1.271-5.053-1.271-2.005 0-3.782.465-5.332 1.395a9.775 9.775 0 0 0-3.596 3.689c-.868 1.529-1.312 3.234-1.333 5.115v7.78c0 2.356.434 4.392 1.302 6.107.889 1.715 2.139 3.038 3.751 3.968 1.612.93 3.523 1.395 5.735 1.395 1.467 0 2.81-.207 4.03-.62 1.219-.413 2.263-1.033 3.13-1.86.868-.826 1.53-1.84 1.984-3.038l12.214.806c-.62 2.935-1.891 5.497-3.813 7.688-1.901 2.17-4.36 3.865-7.378 5.084-2.996 1.199-6.458 1.798-10.384 1.798z" fill="#fff"/><defs><clipPath id="a"><path fill="#fff" transform="translate(2.453)" d="M0 0h115.353v90.412H0z"/></clipPath></defs></svg>